<mxfile host="app.diagrams.net" modified="2023-11-21T01:26:09.248Z" agent="Mozilla/5.0 (Windows NT 10.0; Win64; x64) AppleWebKit/537.36 (KHTML, like Gecko) Chrome/119.0.0.0 Safari/537.36" etag="n5hoRCBEU_-NL_g0svd2" version="22.1.3" type="device">
  <diagram id="C5RBs43oDa-KdzZeNtuy" name="Page-1">
    <mxGraphModel dx="3834" dy="2670" grid="1" gridSize="10" guides="1" tooltips="1" connect="1" arrows="1" fold="1" page="1" pageScale="1" pageWidth="1200" pageHeight="1920" math="0" shadow="0">
      <root>
        <mxCell id="WIyWlLk6GJQsqaUBKTNV-0" />
        <mxCell id="WIyWlLk6GJQsqaUBKTNV-1" parent="WIyWlLk6GJQsqaUBKTNV-0" />
        <mxCell id="hfUMV4JjxT8LaMkukJHo-105" value="" style="edgeStyle=orthogonalEdgeStyle;rounded=0;orthogonalLoop=1;jettySize=auto;html=1;" parent="WIyWlLk6GJQsqaUBKTNV-1" target="hfUMV4JjxT8LaMkukJHo-104" edge="1">
          <mxGeometry relative="1" as="geometry">
            <mxPoint x="2039" as="sourcePoint" />
          </mxGeometry>
        </mxCell>
        <mxCell id="hfUMV4JjxT8LaMkukJHo-83" value="로그인" style="ellipse;whiteSpace=wrap;html=1;" parent="WIyWlLk6GJQsqaUBKTNV-1" vertex="1">
          <mxGeometry x="1979" y="-80" width="120" height="80" as="geometry" />
        </mxCell>
        <mxCell id="hfUMV4JjxT8LaMkukJHo-98" value="모래수거 흐름도" style="shape=process;whiteSpace=wrap;html=1;backgroundOutline=1;size=0;" parent="WIyWlLk6GJQsqaUBKTNV-1" vertex="1">
          <mxGeometry x="-1560" y="-130" width="5100" height="30" as="geometry" />
        </mxCell>
        <mxCell id="hfUMV4JjxT8LaMkukJHo-99" value="사용자 구매 및 사용 관점" style="shape=process;whiteSpace=wrap;html=1;backgroundOutline=1;size=0;" parent="WIyWlLk6GJQsqaUBKTNV-1" vertex="1">
          <mxGeometry x="-1560" y="-100" width="2800" height="30" as="geometry" />
        </mxCell>
        <mxCell id="hfUMV4JjxT8LaMkukJHo-102" value="" style="endArrow=none;html=1;rounded=0;" parent="WIyWlLk6GJQsqaUBKTNV-1" source="mL5LW55gpTMhC8oxr1yt-1" edge="1">
          <mxGeometry width="50" height="50" relative="1" as="geometry">
            <mxPoint x="1240" y="1940" as="sourcePoint" />
            <mxPoint x="1240" y="-70" as="targetPoint" />
          </mxGeometry>
        </mxCell>
        <mxCell id="hfUMV4JjxT8LaMkukJHo-103" value="&amp;nbsp;운영자 관점" style="shape=process;whiteSpace=wrap;html=1;backgroundOutline=1;size=0;" parent="WIyWlLk6GJQsqaUBKTNV-1" vertex="1">
          <mxGeometry x="1240" y="-100" width="1690" height="30" as="geometry" />
        </mxCell>
        <mxCell id="3d2tBKjzDwxo3XAQTUSo-72" style="edgeStyle=orthogonalEdgeStyle;rounded=0;orthogonalLoop=1;jettySize=auto;html=1;entryX=0.5;entryY=0;entryDx=0;entryDy=0;" parent="WIyWlLk6GJQsqaUBKTNV-1" source="hfUMV4JjxT8LaMkukJHo-104" target="3d2tBKjzDwxo3XAQTUSo-36" edge="1">
          <mxGeometry relative="1" as="geometry" />
        </mxCell>
        <mxCell id="hfUMV4JjxT8LaMkukJHo-104" value="주문 관리" style="rounded=1;whiteSpace=wrap;html=1;" parent="WIyWlLk6GJQsqaUBKTNV-1" vertex="1">
          <mxGeometry x="1979" y="60" width="120" height="60" as="geometry" />
        </mxCell>
        <mxCell id="rPkNx3lefUZQREJ5seEW-12" style="edgeStyle=orthogonalEdgeStyle;rounded=0;orthogonalLoop=1;jettySize=auto;html=1;entryX=0.5;entryY=0;entryDx=0;entryDy=0;" parent="WIyWlLk6GJQsqaUBKTNV-1" source="hfUMV4JjxT8LaMkukJHo-106" target="3d2tBKjzDwxo3XAQTUSo-114" edge="1">
          <mxGeometry relative="1" as="geometry" />
        </mxCell>
        <mxCell id="hfUMV4JjxT8LaMkukJHo-106" value="모래수거 요청지" style="whiteSpace=wrap;html=1;rounded=1;" parent="WIyWlLk6GJQsqaUBKTNV-1" vertex="1">
          <mxGeometry x="1800" y="970" width="120" height="60" as="geometry" />
        </mxCell>
        <mxCell id="3d2tBKjzDwxo3XAQTUSo-127" value="" style="edgeStyle=orthogonalEdgeStyle;rounded=0;orthogonalLoop=1;jettySize=auto;html=1;entryX=0.5;entryY=0;entryDx=0;entryDy=0;" parent="WIyWlLk6GJQsqaUBKTNV-1" source="hfUMV4JjxT8LaMkukJHo-305" target="3d2tBKjzDwxo3XAQTUSo-134" edge="1">
          <mxGeometry relative="1" as="geometry">
            <mxPoint x="1680" y="1485" as="targetPoint" />
            <Array as="points" />
          </mxGeometry>
        </mxCell>
        <mxCell id="hfUMV4JjxT8LaMkukJHo-305" value="수거지 명단 확인&lt;br&gt;엑셀 다운로드" style="shape=document;whiteSpace=wrap;html=1;boundedLbl=1;" parent="WIyWlLk6GJQsqaUBKTNV-1" vertex="1">
          <mxGeometry x="2240" y="1330" width="120" height="80" as="geometry" />
        </mxCell>
        <mxCell id="hfUMV4JjxT8LaMkukJHo-308" value="수거기사" style="shape=process;whiteSpace=wrap;html=1;backgroundOutline=1;size=0;" parent="WIyWlLk6GJQsqaUBKTNV-1" vertex="1">
          <mxGeometry x="2930" y="-100" width="610" height="30" as="geometry" />
        </mxCell>
        <mxCell id="hfUMV4JjxT8LaMkukJHo-320" value="&lt;br&gt;배송기사로부터 수거처리되었다고 전달받았지만 사용자로부터 미수거처리되었다고 연락받았을 때&lt;br&gt;&lt;br&gt;&lt;br&gt;미수거 시 수거 고객과의 전화통화 후 미수거 사유 확인 후 복구 결정" style="text;html=1;strokeColor=#FF3333;fillColor=#FFFF33;align=center;verticalAlign=middle;whiteSpace=wrap;rounded=0;sketch=1;curveFitting=1;jiggle=2;" parent="WIyWlLk6GJQsqaUBKTNV-1" vertex="1">
          <mxGeometry x="2050" y="1500" width="240" height="150" as="geometry" />
        </mxCell>
        <mxCell id="hfUMV4JjxT8LaMkukJHo-351" value="" style="edgeStyle=orthogonalEdgeStyle;rounded=0;orthogonalLoop=1;jettySize=auto;html=1;" parent="WIyWlLk6GJQsqaUBKTNV-1" target="hfUMV4JjxT8LaMkukJHo-350" edge="1">
          <mxGeometry relative="1" as="geometry">
            <mxPoint x="3206" as="sourcePoint" />
          </mxGeometry>
        </mxCell>
        <mxCell id="hfUMV4JjxT8LaMkukJHo-355" style="edgeStyle=orthogonalEdgeStyle;rounded=0;orthogonalLoop=1;jettySize=auto;html=1;entryX=0.5;entryY=0;entryDx=0;entryDy=0;" parent="WIyWlLk6GJQsqaUBKTNV-1" source="hfUMV4JjxT8LaMkukJHo-350" target="hfUMV4JjxT8LaMkukJHo-354" edge="1">
          <mxGeometry relative="1" as="geometry" />
        </mxCell>
        <mxCell id="hfUMV4JjxT8LaMkukJHo-350" value="수거지 방문" style="rounded=1;whiteSpace=wrap;html=1;fillColor=#FFFFFF;strokeColor=#6c8ebf;" parent="WIyWlLk6GJQsqaUBKTNV-1" vertex="1">
          <mxGeometry x="3146" y="50" width="120" height="60" as="geometry" />
        </mxCell>
        <mxCell id="hfUMV4JjxT8LaMkukJHo-365" value="" style="edgeStyle=orthogonalEdgeStyle;rounded=0;orthogonalLoop=1;jettySize=auto;html=1;strokeColor=#FF3333;exitX=0;exitY=0.5;exitDx=0;exitDy=0;" parent="WIyWlLk6GJQsqaUBKTNV-1" source="hfUMV4JjxT8LaMkukJHo-354" target="hfUMV4JjxT8LaMkukJHo-364" edge="1">
          <mxGeometry relative="1" as="geometry" />
        </mxCell>
        <mxCell id="rPkNx3lefUZQREJ5seEW-53" value="YES" style="edgeLabel;html=1;align=center;verticalAlign=middle;resizable=0;points=[];" parent="hfUMV4JjxT8LaMkukJHo-365" connectable="0" vertex="1">
          <mxGeometry x="-0.3924" y="2" relative="1" as="geometry">
            <mxPoint as="offset" />
          </mxGeometry>
        </mxCell>
        <mxCell id="hfUMV4JjxT8LaMkukJHo-367" value="NO" style="edgeStyle=orthogonalEdgeStyle;rounded=0;orthogonalLoop=1;jettySize=auto;html=1;strokeColor=#FF3333;entryX=0.5;entryY=0;entryDx=0;entryDy=0;" parent="WIyWlLk6GJQsqaUBKTNV-1" source="hfUMV4JjxT8LaMkukJHo-354" target="hfUMV4JjxT8LaMkukJHo-366" edge="1">
          <mxGeometry x="-0.6686" relative="1" as="geometry">
            <mxPoint x="3090" y="470" as="targetPoint" />
            <mxPoint as="offset" />
          </mxGeometry>
        </mxCell>
        <mxCell id="hfUMV4JjxT8LaMkukJHo-354" value="수거 가능&lt;br&gt;여부 확인" style="rhombus;whiteSpace=wrap;html=1;fillColor=#FFFFFF;strokeColor=#6c8ebf;" parent="WIyWlLk6GJQsqaUBKTNV-1" vertex="1">
          <mxGeometry x="3158" y="200" width="96" height="80" as="geometry" />
        </mxCell>
        <mxCell id="hfUMV4JjxT8LaMkukJHo-359" value="수거자 명단 확인" style="ellipse;whiteSpace=wrap;html=1;fillColor=#FFFFFF;strokeColor=#6c8ebf;" parent="WIyWlLk6GJQsqaUBKTNV-1" vertex="1">
          <mxGeometry x="3146" y="-70" width="120" height="80" as="geometry" />
        </mxCell>
        <mxCell id="hfUMV4JjxT8LaMkukJHo-360" value="" style="endArrow=none;html=1;rounded=0;" parent="WIyWlLk6GJQsqaUBKTNV-1" edge="1">
          <mxGeometry width="50" height="50" relative="1" as="geometry">
            <mxPoint x="2940" y="1960" as="sourcePoint" />
            <mxPoint x="2930" y="-70" as="targetPoint" />
          </mxGeometry>
        </mxCell>
        <mxCell id="rPkNx3lefUZQREJ5seEW-56" style="edgeStyle=orthogonalEdgeStyle;rounded=0;orthogonalLoop=1;jettySize=auto;html=1;" parent="WIyWlLk6GJQsqaUBKTNV-1" source="hfUMV4JjxT8LaMkukJHo-364" target="hfUMV4JjxT8LaMkukJHo-368" edge="1">
          <mxGeometry relative="1" as="geometry" />
        </mxCell>
        <mxCell id="hfUMV4JjxT8LaMkukJHo-364" value="수거" style="rounded=1;whiteSpace=wrap;html=1;fillColor=#FFFFFF;strokeColor=#6c8ebf;" parent="WIyWlLk6GJQsqaUBKTNV-1" vertex="1">
          <mxGeometry x="3040" y="600" width="120" height="60" as="geometry" />
        </mxCell>
        <mxCell id="3d2tBKjzDwxo3XAQTUSo-277" style="edgeStyle=orthogonalEdgeStyle;rounded=0;orthogonalLoop=1;jettySize=auto;html=1;exitX=0.5;exitY=1;exitDx=0;exitDy=0;entryX=0.75;entryY=0;entryDx=0;entryDy=0;" parent="WIyWlLk6GJQsqaUBKTNV-1" source="hfUMV4JjxT8LaMkukJHo-366" target="3d2tBKjzDwxo3XAQTUSo-274" edge="1">
          <mxGeometry relative="1" as="geometry" />
        </mxCell>
        <mxCell id="hfUMV4JjxT8LaMkukJHo-366" value="해당 사용자 &lt;br&gt;미수거 체크" style="rounded=1;whiteSpace=wrap;html=1;fillColor=#FFFFFF;strokeColor=#6c8ebf;" parent="WIyWlLk6GJQsqaUBKTNV-1" vertex="1">
          <mxGeometry x="3260" y="995" width="120" height="60" as="geometry" />
        </mxCell>
        <mxCell id="3d2tBKjzDwxo3XAQTUSo-25" value="" style="edgeStyle=orthogonalEdgeStyle;rounded=0;orthogonalLoop=1;jettySize=auto;html=1;" parent="WIyWlLk6GJQsqaUBKTNV-1" edge="1">
          <mxGeometry relative="1" as="geometry">
            <mxPoint x="490" y="1170" as="sourcePoint" />
          </mxGeometry>
        </mxCell>
        <mxCell id="3d2tBKjzDwxo3XAQTUSo-31" value="" style="endArrow=none;html=1;rounded=0;" parent="WIyWlLk6GJQsqaUBKTNV-1" edge="1">
          <mxGeometry width="50" height="50" relative="1" as="geometry">
            <mxPoint x="3540" y="1960" as="sourcePoint" />
            <mxPoint x="3540" y="-84" as="targetPoint" />
          </mxGeometry>
        </mxCell>
        <mxCell id="3d2tBKjzDwxo3XAQTUSo-48" style="edgeStyle=orthogonalEdgeStyle;rounded=0;orthogonalLoop=1;jettySize=auto;html=1;" parent="WIyWlLk6GJQsqaUBKTNV-1" source="3d2tBKjzDwxo3XAQTUSo-36" target="hfUMV4JjxT8LaMkukJHo-106" edge="1">
          <mxGeometry relative="1" as="geometry">
            <Array as="points">
              <mxPoint x="1950" y="330" />
              <mxPoint x="1860" y="330" />
            </Array>
          </mxGeometry>
        </mxCell>
        <mxCell id="3d2tBKjzDwxo3XAQTUSo-50" style="edgeStyle=orthogonalEdgeStyle;rounded=0;orthogonalLoop=1;jettySize=auto;html=1;" parent="WIyWlLk6GJQsqaUBKTNV-1" source="3d2tBKjzDwxo3XAQTUSo-36" target="3d2tBKjzDwxo3XAQTUSo-42" edge="1">
          <mxGeometry relative="1" as="geometry">
            <Array as="points">
              <mxPoint x="2130" y="330" />
              <mxPoint x="2610" y="330" />
            </Array>
          </mxGeometry>
        </mxCell>
        <mxCell id="3d2tBKjzDwxo3XAQTUSo-36" value="" style="whiteSpace=wrap;html=1;rounded=0;shadow=0;comic=0;labelBackgroundColor=none;strokeWidth=1;fillColor=#000000;fontFamily=Verdana;fontSize=12;align=center;rotation=0;" parent="WIyWlLk6GJQsqaUBKTNV-1" vertex="1">
          <mxGeometry x="1919" y="230" width="240" height="10" as="geometry" />
        </mxCell>
        <mxCell id="3d2tBKjzDwxo3XAQTUSo-55" value="" style="edgeStyle=orthogonalEdgeStyle;rounded=0;orthogonalLoop=1;jettySize=auto;html=1;" parent="WIyWlLk6GJQsqaUBKTNV-1" source="3d2tBKjzDwxo3XAQTUSo-42" target="3d2tBKjzDwxo3XAQTUSo-54" edge="1">
          <mxGeometry relative="1" as="geometry" />
        </mxCell>
        <mxCell id="3d2tBKjzDwxo3XAQTUSo-42" value="주문 취소 리스트" style="rounded=1;whiteSpace=wrap;html=1;" parent="WIyWlLk6GJQsqaUBKTNV-1" vertex="1">
          <mxGeometry x="2550" y="970" width="120" height="60" as="geometry" />
        </mxCell>
        <mxCell id="3d2tBKjzDwxo3XAQTUSo-53" value="" style="endArrow=none;html=1;rounded=0;" parent="WIyWlLk6GJQsqaUBKTNV-1" source="mL5LW55gpTMhC8oxr1yt-1" edge="1">
          <mxGeometry width="50" height="50" relative="1" as="geometry">
            <mxPoint x="1240" y="1940" as="sourcePoint" />
            <mxPoint x="1241.1454545454544" y="220" as="targetPoint" />
          </mxGeometry>
        </mxCell>
        <mxCell id="3d2tBKjzDwxo3XAQTUSo-57" style="edgeStyle=orthogonalEdgeStyle;rounded=0;orthogonalLoop=1;jettySize=auto;html=1;entryX=0.5;entryY=0;entryDx=0;entryDy=0;" parent="WIyWlLk6GJQsqaUBKTNV-1" source="3d2tBKjzDwxo3XAQTUSo-54" target="3d2tBKjzDwxo3XAQTUSo-56" edge="1">
          <mxGeometry relative="1" as="geometry" />
        </mxCell>
        <mxCell id="3d2tBKjzDwxo3XAQTUSo-54" value="취소사유 확인" style="whiteSpace=wrap;html=1;rounded=1;" parent="WIyWlLk6GJQsqaUBKTNV-1" vertex="1">
          <mxGeometry x="2550" y="1145" width="120" height="60" as="geometry" />
        </mxCell>
        <mxCell id="3d2tBKjzDwxo3XAQTUSo-59" value="NO" style="edgeStyle=orthogonalEdgeStyle;rounded=0;orthogonalLoop=1;jettySize=auto;html=1;strokeColor=#FF3333;entryX=1;entryY=0.5;entryDx=0;entryDy=0;exitX=1;exitY=0.5;exitDx=0;exitDy=0;" parent="WIyWlLk6GJQsqaUBKTNV-1" source="3d2tBKjzDwxo3XAQTUSo-56" target="3d2tBKjzDwxo3XAQTUSo-71" edge="1">
          <mxGeometry relative="1" as="geometry">
            <mxPoint x="2810" y="1320" as="targetPoint" />
            <Array as="points">
              <mxPoint x="2740" y="1320" />
              <mxPoint x="2740" y="1850" />
            </Array>
          </mxGeometry>
        </mxCell>
        <mxCell id="3d2tBKjzDwxo3XAQTUSo-67" value="YES" style="edgeStyle=orthogonalEdgeStyle;rounded=0;orthogonalLoop=1;jettySize=auto;html=1;strokeColor=#FF3333;" parent="WIyWlLk6GJQsqaUBKTNV-1" source="3d2tBKjzDwxo3XAQTUSo-56" edge="1">
          <mxGeometry relative="1" as="geometry">
            <mxPoint x="2610" y="1420" as="targetPoint" />
          </mxGeometry>
        </mxCell>
        <mxCell id="3d2tBKjzDwxo3XAQTUSo-56" value="잔여 수거권&amp;nbsp;&lt;br&gt;여부 확인" style="rhombus;whiteSpace=wrap;html=1;rounded=1;" parent="WIyWlLk6GJQsqaUBKTNV-1" vertex="1">
          <mxGeometry x="2562" y="1280" width="96" height="80" as="geometry" />
        </mxCell>
        <mxCell id="3d2tBKjzDwxo3XAQTUSo-61" value="수거권 환불은 관리자가 직접 고객과 연락하여 환불정보(계좌정보)를 파악하여 개별적으로 환불을 진행 후 수기로 환불에 대한 기록을 남기는 방식으로 진행된다." style="text;html=1;strokeColor=#FF3333;fillColor=#FFFF33;align=center;verticalAlign=middle;whiteSpace=wrap;rounded=0;sketch=1;curveFitting=1;jiggle=2;" parent="WIyWlLk6GJQsqaUBKTNV-1" vertex="1">
          <mxGeometry x="2390" y="1650" width="200" height="100" as="geometry" />
        </mxCell>
        <mxCell id="3d2tBKjzDwxo3XAQTUSo-75" value="" style="edgeStyle=orthogonalEdgeStyle;rounded=0;orthogonalLoop=1;jettySize=auto;html=1;" parent="WIyWlLk6GJQsqaUBKTNV-1" source="3d2tBKjzDwxo3XAQTUSo-66" target="3d2tBKjzDwxo3XAQTUSo-74" edge="1">
          <mxGeometry relative="1" as="geometry" />
        </mxCell>
        <mxCell id="3d2tBKjzDwxo3XAQTUSo-66" value="관리자가 주문번호 별 잔여 수거권 환불금액 판단" style="rounded=1;whiteSpace=wrap;html=1;" parent="WIyWlLk6GJQsqaUBKTNV-1" vertex="1">
          <mxGeometry x="2550" y="1425" width="120" height="60" as="geometry" />
        </mxCell>
        <mxCell id="3d2tBKjzDwxo3XAQTUSo-71" value="취소 완료" style="ellipse;whiteSpace=wrap;html=1;aspect=fixed;fillColor=#000000;fontColor=#FFFFFF;" parent="WIyWlLk6GJQsqaUBKTNV-1" vertex="1">
          <mxGeometry x="2570" y="1810" width="80" height="80" as="geometry" />
        </mxCell>
        <mxCell id="3d2tBKjzDwxo3XAQTUSo-77" style="edgeStyle=orthogonalEdgeStyle;rounded=0;orthogonalLoop=1;jettySize=auto;html=1;entryX=0.5;entryY=0;entryDx=0;entryDy=0;" parent="WIyWlLk6GJQsqaUBKTNV-1" source="3d2tBKjzDwxo3XAQTUSo-74" target="3d2tBKjzDwxo3XAQTUSo-71" edge="1">
          <mxGeometry relative="1" as="geometry" />
        </mxCell>
        <mxCell id="3d2tBKjzDwxo3XAQTUSo-74" value="환불 금액 지정하여 &lt;br&gt;환불 진행" style="whiteSpace=wrap;html=1;rounded=1;" parent="WIyWlLk6GJQsqaUBKTNV-1" vertex="1">
          <mxGeometry x="2550" y="1525" width="120" height="60" as="geometry" />
        </mxCell>
        <mxCell id="3d2tBKjzDwxo3XAQTUSo-78" value="모래수거 명단 확인" style="text;html=1;strokeColor=default;fillColor=none;align=center;verticalAlign=middle;whiteSpace=wrap;rounded=0;" parent="WIyWlLk6GJQsqaUBKTNV-1" vertex="1">
          <mxGeometry x="1800" y="270" width="120" height="30" as="geometry" />
        </mxCell>
        <mxCell id="3d2tBKjzDwxo3XAQTUSo-79" value="해지 요청자 명단 확인" style="text;html=1;strokeColor=default;fillColor=none;align=center;verticalAlign=middle;whiteSpace=wrap;rounded=0;" parent="WIyWlLk6GJQsqaUBKTNV-1" vertex="1">
          <mxGeometry x="2252" y="270" width="120" height="30" as="geometry" />
        </mxCell>
        <mxCell id="3d2tBKjzDwxo3XAQTUSo-105" value="수거기사에 대한 내용은 시스템으로 만들어져 있지 않다.&lt;br&gt;&lt;br&gt;** 수거 기사에 대한 내용 예측 프로세스" style="text;html=1;strokeColor=#FF3333;fillColor=#FFFF33;align=center;verticalAlign=middle;whiteSpace=wrap;rounded=0;sketch=1;curveFitting=1;jiggle=2;" parent="WIyWlLk6GJQsqaUBKTNV-1" vertex="1">
          <mxGeometry x="3300" y="-60" width="240" height="120" as="geometry" />
        </mxCell>
        <mxCell id="3d2tBKjzDwxo3XAQTUSo-119" style="edgeStyle=orthogonalEdgeStyle;rounded=0;orthogonalLoop=1;jettySize=auto;html=1;entryX=0.5;entryY=0;entryDx=0;entryDy=0;exitX=0.25;exitY=1;exitDx=0;exitDy=0;" parent="WIyWlLk6GJQsqaUBKTNV-1" source="3d2tBKjzDwxo3XAQTUSo-114" target="rPkNx3lefUZQREJ5seEW-38" edge="1">
          <mxGeometry relative="1" as="geometry">
            <mxPoint x="1488" y="1315" as="targetPoint" />
          </mxGeometry>
        </mxCell>
        <mxCell id="rPkNx3lefUZQREJ5seEW-44" style="edgeStyle=orthogonalEdgeStyle;rounded=0;orthogonalLoop=1;jettySize=auto;html=1;exitX=0.75;exitY=1;exitDx=0;exitDy=0;" parent="WIyWlLk6GJQsqaUBKTNV-1" source="3d2tBKjzDwxo3XAQTUSo-114" target="hfUMV4JjxT8LaMkukJHo-305" edge="1">
          <mxGeometry relative="1" as="geometry" />
        </mxCell>
        <mxCell id="f3Tv7JB4kyNmLcIMs9Kd-9" style="edgeStyle=orthogonalEdgeStyle;rounded=0;orthogonalLoop=1;jettySize=auto;html=1;" parent="WIyWlLk6GJQsqaUBKTNV-1" source="3d2tBKjzDwxo3XAQTUSo-114" target="rPkNx3lefUZQREJ5seEW-28" edge="1">
          <mxGeometry relative="1" as="geometry" />
        </mxCell>
        <mxCell id="3d2tBKjzDwxo3XAQTUSo-114" value="" style="whiteSpace=wrap;html=1;rounded=0;shadow=0;comic=0;labelBackgroundColor=none;strokeWidth=1;fillColor=#000000;fontFamily=Verdana;fontSize=12;align=center;rotation=0;" parent="WIyWlLk6GJQsqaUBKTNV-1" vertex="1">
          <mxGeometry x="1739" y="1230" width="240" height="20" as="geometry" />
        </mxCell>
        <mxCell id="3d2tBKjzDwxo3XAQTUSo-311" value="USE" style="edgeStyle=orthogonalEdgeStyle;rounded=0;orthogonalLoop=1;jettySize=auto;html=1;entryX=0;entryY=0.5;entryDx=0;entryDy=0;strokeColor=#7F00FF;dashed=1;" parent="WIyWlLk6GJQsqaUBKTNV-1" source="hfUMV4JjxT8LaMkukJHo-342" target="hfUMV4JjxT8LaMkukJHo-359" edge="1">
          <mxGeometry x="-0.8819" relative="1" as="geometry">
            <Array as="points">
              <mxPoint x="2960" y="-30" />
            </Array>
            <mxPoint as="offset" />
          </mxGeometry>
        </mxCell>
        <mxCell id="3d2tBKjzDwxo3XAQTUSo-134" value="수거자 명단&lt;br style=&quot;border-color: var(--border-color);&quot;&gt;수거팀 전달" style="ellipse;whiteSpace=wrap;html=1;aspect=fixed;fillColor=#000000;fontColor=#FFFFFF;" parent="WIyWlLk6GJQsqaUBKTNV-1" vertex="1">
          <mxGeometry x="2260" y="1810" width="80" height="80" as="geometry" />
        </mxCell>
        <mxCell id="3d2tBKjzDwxo3XAQTUSo-224" style="edgeStyle=orthogonalEdgeStyle;rounded=0;orthogonalLoop=1;jettySize=auto;html=1;" parent="WIyWlLk6GJQsqaUBKTNV-1" source="rPkNx3lefUZQREJ5seEW-28" target="3d2tBKjzDwxo3XAQTUSo-221" edge="1">
          <mxGeometry relative="1" as="geometry" />
        </mxCell>
        <mxCell id="rPkNx3lefUZQREJ5seEW-28" value="수거 복구" style="rounded=1;whiteSpace=wrap;html=1;" parent="WIyWlLk6GJQsqaUBKTNV-1" vertex="1">
          <mxGeometry x="1799" y="1330" width="120" height="60" as="geometry" />
        </mxCell>
        <mxCell id="3d2tBKjzDwxo3XAQTUSo-227" style="edgeStyle=orthogonalEdgeStyle;rounded=0;orthogonalLoop=1;jettySize=auto;html=1;entryX=0.5;entryY=0;entryDx=0;entryDy=0;" parent="WIyWlLk6GJQsqaUBKTNV-1" source="rPkNx3lefUZQREJ5seEW-38" target="3d2tBKjzDwxo3XAQTUSo-222" edge="1">
          <mxGeometry relative="1" as="geometry" />
        </mxCell>
        <mxCell id="rPkNx3lefUZQREJ5seEW-38" value="수거권 상태 변경" style="rounded=1;whiteSpace=wrap;html=1;" parent="WIyWlLk6GJQsqaUBKTNV-1" vertex="1">
          <mxGeometry x="1370" y="1330" width="120" height="60" as="geometry" />
        </mxCell>
        <mxCell id="3d2tBKjzDwxo3XAQTUSo-231" value="NO&lt;br&gt;(타당하지 않음)" style="edgeStyle=orthogonalEdgeStyle;rounded=0;orthogonalLoop=1;jettySize=auto;html=1;entryX=1;entryY=0.5;entryDx=0;entryDy=0;strokeColor=#FF3333;exitX=0.5;exitY=1;exitDx=0;exitDy=0;" parent="WIyWlLk6GJQsqaUBKTNV-1" source="3d2tBKjzDwxo3XAQTUSo-221" target="3d2tBKjzDwxo3XAQTUSo-226" edge="1">
          <mxGeometry x="-0.9184" relative="1" as="geometry">
            <mxPoint as="offset" />
          </mxGeometry>
        </mxCell>
        <mxCell id="3d2tBKjzDwxo3XAQTUSo-236" value="YES&lt;br&gt;(타당함)" style="edgeStyle=orthogonalEdgeStyle;rounded=0;orthogonalLoop=1;jettySize=auto;html=1;entryX=0.5;entryY=0;entryDx=0;entryDy=0;strokeColor=#FF3333;" parent="WIyWlLk6GJQsqaUBKTNV-1" source="3d2tBKjzDwxo3XAQTUSo-221" target="3d2tBKjzDwxo3XAQTUSo-225" edge="1">
          <mxGeometry x="0.5556" relative="1" as="geometry">
            <mxPoint as="offset" />
          </mxGeometry>
        </mxCell>
        <mxCell id="3d2tBKjzDwxo3XAQTUSo-221" value="미수거 사유 확인" style="rhombus;whiteSpace=wrap;html=1;rounded=1;" parent="WIyWlLk6GJQsqaUBKTNV-1" vertex="1">
          <mxGeometry x="1809" y="1510" width="100" height="80" as="geometry" />
        </mxCell>
        <mxCell id="3d2tBKjzDwxo3XAQTUSo-229" value="YES" style="edgeStyle=orthogonalEdgeStyle;rounded=0;orthogonalLoop=1;jettySize=auto;html=1;entryX=0;entryY=0.5;entryDx=0;entryDy=0;strokeColor=#FF3333;" parent="WIyWlLk6GJQsqaUBKTNV-1" source="3d2tBKjzDwxo3XAQTUSo-222" target="3d2tBKjzDwxo3XAQTUSo-226" edge="1">
          <mxGeometry relative="1" as="geometry">
            <Array as="points">
              <mxPoint x="1360" y="1550" />
              <mxPoint x="1360" y="1850" />
            </Array>
          </mxGeometry>
        </mxCell>
        <mxCell id="3d2tBKjzDwxo3XAQTUSo-234" value="NO" style="edgeStyle=orthogonalEdgeStyle;rounded=0;orthogonalLoop=1;jettySize=auto;html=1;entryX=0;entryY=0.5;entryDx=0;entryDy=0;strokeColor=#FF3333;" parent="WIyWlLk6GJQsqaUBKTNV-1" source="3d2tBKjzDwxo3XAQTUSo-222" target="3d2tBKjzDwxo3XAQTUSo-221" edge="1">
          <mxGeometry relative="1" as="geometry" />
        </mxCell>
        <mxCell id="3d2tBKjzDwxo3XAQTUSo-222" value="수거 여부" style="rhombus;whiteSpace=wrap;html=1;rounded=1;" parent="WIyWlLk6GJQsqaUBKTNV-1" vertex="1">
          <mxGeometry x="1380" y="1510" width="100" height="80" as="geometry" />
        </mxCell>
        <mxCell id="3d2tBKjzDwxo3XAQTUSo-225" value="복구" style="ellipse;whiteSpace=wrap;html=1;aspect=fixed;fillColor=#000000;fontColor=#FFFFFF;" parent="WIyWlLk6GJQsqaUBKTNV-1" vertex="1">
          <mxGeometry x="1970" y="1810" width="80" height="80" as="geometry" />
        </mxCell>
        <mxCell id="3d2tBKjzDwxo3XAQTUSo-226" value="수거 확인" style="ellipse;whiteSpace=wrap;html=1;aspect=fixed;fillColor=#000000;fontColor=#FFFFFF;" parent="WIyWlLk6GJQsqaUBKTNV-1" vertex="1">
          <mxGeometry x="1390" y="1810" width="80" height="80" as="geometry" />
        </mxCell>
        <mxCell id="hfUMV4JjxT8LaMkukJHo-368" value="해당 사용자&lt;br&gt;수거 체크" style="rounded=1;whiteSpace=wrap;html=1;fillColor=#FFFFFF;strokeColor=#6c8ebf;" parent="WIyWlLk6GJQsqaUBKTNV-1" vertex="1">
          <mxGeometry x="3040" y="995" width="120" height="60" as="geometry" />
        </mxCell>
        <mxCell id="f3Tv7JB4kyNmLcIMs9Kd-13" value="RETURN" style="edgeStyle=orthogonalEdgeStyle;rounded=0;orthogonalLoop=1;jettySize=auto;html=1;entryX=1;entryY=0.25;entryDx=0;entryDy=0;dashed=1;strokeColor=#7F00FF;" parent="WIyWlLk6GJQsqaUBKTNV-1" source="3d2tBKjzDwxo3XAQTUSo-242" target="hfUMV4JjxT8LaMkukJHo-342" edge="1">
          <mxGeometry x="0.6623" relative="1" as="geometry">
            <Array as="points">
              <mxPoint x="3030" y="1850" />
              <mxPoint x="3030" y="790" />
            </Array>
            <mxPoint as="offset" />
          </mxGeometry>
        </mxCell>
        <mxCell id="3d2tBKjzDwxo3XAQTUSo-242" value="관리자에게 &lt;br&gt;수거 명단 전달" style="ellipse;whiteSpace=wrap;html=1;aspect=fixed;fillColor=#000000;strokeColor=#6c8ebf;fontColor=#FFFFFF;" parent="WIyWlLk6GJQsqaUBKTNV-1" vertex="1">
          <mxGeometry x="3166" y="1810" width="80" height="80" as="geometry" />
        </mxCell>
        <mxCell id="3d2tBKjzDwxo3XAQTUSo-272" value="" style="whiteSpace=wrap;html=1;rounded=0;shadow=0;comic=0;labelBackgroundColor=none;strokeWidth=1;fillColor=#000000;fontFamily=Verdana;fontSize=12;align=center;rotation=0;" parent="WIyWlLk6GJQsqaUBKTNV-1" vertex="1">
          <mxGeometry x="3086" y="150" width="240" height="10" as="geometry" />
        </mxCell>
        <mxCell id="3d2tBKjzDwxo3XAQTUSo-281" style="edgeStyle=orthogonalEdgeStyle;rounded=0;orthogonalLoop=1;jettySize=auto;html=1;exitX=0.5;exitY=1;exitDx=0;exitDy=0;entryX=0.5;entryY=0;entryDx=0;entryDy=0;" parent="WIyWlLk6GJQsqaUBKTNV-1" source="3d2tBKjzDwxo3XAQTUSo-274" target="3d2tBKjzDwxo3XAQTUSo-279" edge="1">
          <mxGeometry relative="1" as="geometry" />
        </mxCell>
        <mxCell id="3d2tBKjzDwxo3XAQTUSo-274" value="" style="whiteSpace=wrap;html=1;rounded=0;shadow=0;comic=0;labelBackgroundColor=none;strokeWidth=1;fillColor=#000000;fontFamily=Verdana;fontSize=12;align=center;rotation=0;" parent="WIyWlLk6GJQsqaUBKTNV-1" vertex="1">
          <mxGeometry x="3086" y="1160" width="240" height="10" as="geometry" />
        </mxCell>
        <mxCell id="3d2tBKjzDwxo3XAQTUSo-276" style="edgeStyle=orthogonalEdgeStyle;rounded=0;orthogonalLoop=1;jettySize=auto;html=1;exitX=0.5;exitY=1;exitDx=0;exitDy=0;entryX=0.25;entryY=0;entryDx=0;entryDy=0;" parent="WIyWlLk6GJQsqaUBKTNV-1" source="hfUMV4JjxT8LaMkukJHo-368" target="3d2tBKjzDwxo3XAQTUSo-274" edge="1">
          <mxGeometry relative="1" as="geometry">
            <mxPoint x="3200" y="1120" as="targetPoint" />
          </mxGeometry>
        </mxCell>
        <mxCell id="3d2tBKjzDwxo3XAQTUSo-283" value="YES" style="edgeStyle=orthogonalEdgeStyle;rounded=0;orthogonalLoop=1;jettySize=auto;html=1;exitX=1;exitY=0.5;exitDx=0;exitDy=0;entryX=1;entryY=0.5;entryDx=0;entryDy=0;strokeColor=#FF3333;" parent="WIyWlLk6GJQsqaUBKTNV-1" source="3d2tBKjzDwxo3XAQTUSo-279" target="hfUMV4JjxT8LaMkukJHo-350" edge="1">
          <mxGeometry x="-0.9677" relative="1" as="geometry">
            <mxPoint x="3390" y="69.99999999999955" as="targetPoint" />
            <Array as="points">
              <mxPoint x="3450" y="1310" />
              <mxPoint x="3450" y="80" />
            </Array>
            <mxPoint as="offset" />
          </mxGeometry>
        </mxCell>
        <mxCell id="3d2tBKjzDwxo3XAQTUSo-279" value="다음 수거지" style="rhombus;whiteSpace=wrap;html=1;rounded=1;" parent="WIyWlLk6GJQsqaUBKTNV-1" vertex="1">
          <mxGeometry x="3158" y="1270" width="96" height="80" as="geometry" />
        </mxCell>
        <mxCell id="3d2tBKjzDwxo3XAQTUSo-282" value="NO" style="edgeStyle=orthogonalEdgeStyle;rounded=0;orthogonalLoop=1;jettySize=auto;html=1;exitX=0.5;exitY=1;exitDx=0;exitDy=0;strokeColor=#FF3333;" parent="WIyWlLk6GJQsqaUBKTNV-1" source="3d2tBKjzDwxo3XAQTUSo-279" target="3d2tBKjzDwxo3XAQTUSo-242" edge="1">
          <mxGeometry x="-0.8" relative="1" as="geometry">
            <mxPoint x="3216" y="1180" as="sourcePoint" />
            <mxPoint x="3216" y="1280" as="targetPoint" />
            <mxPoint as="offset" />
          </mxGeometry>
        </mxCell>
        <mxCell id="EmjIf0o4EKdm99o1xQy6-0" value="" style="edgeStyle=orthogonalEdgeStyle;rounded=0;orthogonalLoop=1;jettySize=auto;html=1;" parent="WIyWlLk6GJQsqaUBKTNV-1" source="EmjIf0o4EKdm99o1xQy6-1" target="EmjIf0o4EKdm99o1xQy6-3" edge="1">
          <mxGeometry relative="1" as="geometry" />
        </mxCell>
        <mxCell id="EmjIf0o4EKdm99o1xQy6-1" value="로그인" style="ellipse;whiteSpace=wrap;html=1;" parent="WIyWlLk6GJQsqaUBKTNV-1" vertex="1">
          <mxGeometry x="-35.139999999999986" y="-50" width="120" height="80" as="geometry" />
        </mxCell>
        <mxCell id="EmjIf0o4EKdm99o1xQy6-2" style="edgeStyle=orthogonalEdgeStyle;rounded=0;orthogonalLoop=1;jettySize=auto;html=1;entryX=0.5;entryY=0;entryDx=0;entryDy=0;" parent="WIyWlLk6GJQsqaUBKTNV-1" source="EmjIf0o4EKdm99o1xQy6-3" target="EmjIf0o4EKdm99o1xQy6-19" edge="1">
          <mxGeometry relative="1" as="geometry">
            <mxPoint x="24.860000000000014" y="290" as="targetPoint" />
          </mxGeometry>
        </mxCell>
        <mxCell id="EmjIf0o4EKdm99o1xQy6-3" value="메인 화면" style="rounded=1;whiteSpace=wrap;html=1;" parent="WIyWlLk6GJQsqaUBKTNV-1" vertex="1">
          <mxGeometry x="-35.139999999999986" y="100" width="120" height="60" as="geometry" />
        </mxCell>
        <mxCell id="EmjIf0o4EKdm99o1xQy6-4" value="수거 요청 수정은&amp;nbsp;&lt;br&gt;배출확인 전까지 가능" style="text;html=1;strokeColor=#FF3333;fillColor=#FFFF33;align=center;verticalAlign=middle;whiteSpace=wrap;rounded=0;sketch=1;curveFitting=1;jiggle=2;" parent="WIyWlLk6GJQsqaUBKTNV-1" vertex="1">
          <mxGeometry x="660" y="937.5" width="120" height="60" as="geometry" />
        </mxCell>
        <mxCell id="EmjIf0o4EKdm99o1xQy6-5" value="" style="edgeStyle=orthogonalEdgeStyle;rounded=0;orthogonalLoop=1;jettySize=auto;html=1;" parent="WIyWlLk6GJQsqaUBKTNV-1" source="EmjIf0o4EKdm99o1xQy6-6" target="EmjIf0o4EKdm99o1xQy6-8" edge="1">
          <mxGeometry relative="1" as="geometry" />
        </mxCell>
        <mxCell id="EmjIf0o4EKdm99o1xQy6-6" value="쇼핑" style="whiteSpace=wrap;html=1;rounded=1;" parent="WIyWlLk6GJQsqaUBKTNV-1" vertex="1">
          <mxGeometry x="-880" y="800" width="120" height="60" as="geometry" />
        </mxCell>
        <mxCell id="EmjIf0o4EKdm99o1xQy6-7" value="" style="edgeStyle=orthogonalEdgeStyle;rounded=0;orthogonalLoop=1;jettySize=auto;html=1;" parent="WIyWlLk6GJQsqaUBKTNV-1" source="EmjIf0o4EKdm99o1xQy6-8" edge="1">
          <mxGeometry relative="1" as="geometry">
            <mxPoint x="-820" y="1070" as="targetPoint" />
          </mxGeometry>
        </mxCell>
        <mxCell id="EmjIf0o4EKdm99o1xQy6-8" value="모래수거 수거권&lt;br&gt;상품선택" style="whiteSpace=wrap;html=1;rounded=1;" parent="WIyWlLk6GJQsqaUBKTNV-1" vertex="1">
          <mxGeometry x="-880" y="940" width="120" height="60" as="geometry" />
        </mxCell>
        <mxCell id="EmjIf0o4EKdm99o1xQy6-9" value="YES" style="edgeStyle=orthogonalEdgeStyle;rounded=0;orthogonalLoop=1;jettySize=auto;html=1;strokeColor=#FF3333;" parent="WIyWlLk6GJQsqaUBKTNV-1" source="EmjIf0o4EKdm99o1xQy6-11" target="EmjIf0o4EKdm99o1xQy6-13" edge="1">
          <mxGeometry relative="1" as="geometry" />
        </mxCell>
        <mxCell id="EmjIf0o4EKdm99o1xQy6-10" value="NO" style="edgeStyle=orthogonalEdgeStyle;rounded=0;orthogonalLoop=1;jettySize=auto;html=1;entryX=0;entryY=0.5;entryDx=0;entryDy=0;strokeColor=#FF3333;exitX=0;exitY=0.5;exitDx=0;exitDy=0;" parent="WIyWlLk6GJQsqaUBKTNV-1" source="EmjIf0o4EKdm99o1xQy6-11" target="EmjIf0o4EKdm99o1xQy6-6" edge="1">
          <mxGeometry relative="1" as="geometry">
            <Array as="points">
              <mxPoint x="-940" y="1110" />
              <mxPoint x="-940" y="830" />
            </Array>
          </mxGeometry>
        </mxCell>
        <mxCell id="EmjIf0o4EKdm99o1xQy6-11" value="구매하기" style="rhombus;whiteSpace=wrap;html=1;rounded=1;" parent="WIyWlLk6GJQsqaUBKTNV-1" vertex="1">
          <mxGeometry x="-868" y="1070" width="96" height="80" as="geometry" />
        </mxCell>
        <mxCell id="EmjIf0o4EKdm99o1xQy6-12" value="" style="edgeStyle=orthogonalEdgeStyle;rounded=0;orthogonalLoop=1;jettySize=auto;html=1;" parent="WIyWlLk6GJQsqaUBKTNV-1" source="EmjIf0o4EKdm99o1xQy6-13" target="EmjIf0o4EKdm99o1xQy6-15" edge="1">
          <mxGeometry relative="1" as="geometry" />
        </mxCell>
        <mxCell id="EmjIf0o4EKdm99o1xQy6-13" value="배송 정보 입력" style="rounded=1;whiteSpace=wrap;html=1;" parent="WIyWlLk6GJQsqaUBKTNV-1" vertex="1">
          <mxGeometry x="-880" y="1240" width="120" height="60" as="geometry" />
        </mxCell>
        <mxCell id="EmjIf0o4EKdm99o1xQy6-14" value="" style="edgeStyle=orthogonalEdgeStyle;rounded=0;orthogonalLoop=1;jettySize=auto;html=1;" parent="WIyWlLk6GJQsqaUBKTNV-1" source="EmjIf0o4EKdm99o1xQy6-15" target="EmjIf0o4EKdm99o1xQy6-54" edge="1">
          <mxGeometry relative="1" as="geometry">
            <mxPoint x="-820" y="1540" as="targetPoint" />
          </mxGeometry>
        </mxCell>
        <mxCell id="EmjIf0o4EKdm99o1xQy6-15" value="결제 정보 입력" style="whiteSpace=wrap;html=1;rounded=1;" parent="WIyWlLk6GJQsqaUBKTNV-1" vertex="1">
          <mxGeometry x="-880" y="1380" width="120" height="60" as="geometry" />
        </mxCell>
        <mxCell id="mL5LW55gpTMhC8oxr1yt-3" value="RETURN" style="edgeStyle=orthogonalEdgeStyle;rounded=0;orthogonalLoop=1;jettySize=auto;html=1;exitX=1;exitY=0.5;exitDx=0;exitDy=0;dashed=1;strokeColor=#7F00FF;fillColor=#ffe6cc;" parent="WIyWlLk6GJQsqaUBKTNV-1" source="EmjIf0o4EKdm99o1xQy6-17" target="mL5LW55gpTMhC8oxr1yt-1" edge="1">
          <mxGeometry x="0.8845" relative="1" as="geometry">
            <mxPoint x="100" y="2090" as="targetPoint" />
            <Array as="points">
              <mxPoint x="-90" y="1870" />
              <mxPoint x="-90" y="1950" />
              <mxPoint x="1120" y="1950" />
              <mxPoint x="1120" y="750" />
            </Array>
            <mxPoint as="offset" />
          </mxGeometry>
        </mxCell>
        <mxCell id="EmjIf0o4EKdm99o1xQy6-70" style="edgeStyle=orthogonalEdgeStyle;rounded=0;orthogonalLoop=1;jettySize=auto;html=1;entryX=0.5;entryY=0;entryDx=0;entryDy=0;strokeColor=#FF0D0D;" parent="WIyWlLk6GJQsqaUBKTNV-1" source="EmjIf0o4EKdm99o1xQy6-19" target="EmjIf0o4EKdm99o1xQy6-64" edge="1">
          <mxGeometry relative="1" as="geometry" />
        </mxCell>
        <mxCell id="EmjIf0o4EKdm99o1xQy6-71" value="NO&lt;br&gt;(잔여 수거권 없음)" style="edgeLabel;html=1;align=center;verticalAlign=middle;resizable=0;points=[];" parent="EmjIf0o4EKdm99o1xQy6-70" vertex="1" connectable="0">
          <mxGeometry x="-0.7459" y="-2" relative="1" as="geometry">
            <mxPoint as="offset" />
          </mxGeometry>
        </mxCell>
        <mxCell id="EmjIf0o4EKdm99o1xQy6-19" value="모래수거 서비스 잔여 횟수 확인" style="rhombus;whiteSpace=wrap;html=1;rounded=1;" parent="WIyWlLk6GJQsqaUBKTNV-1" vertex="1">
          <mxGeometry x="-25.139999999999986" y="240" width="100" height="80" as="geometry" />
        </mxCell>
        <mxCell id="EmjIf0o4EKdm99o1xQy6-21" value="NO&lt;br&gt;(해지)" style="edgeStyle=orthogonalEdgeStyle;rounded=0;orthogonalLoop=1;jettySize=auto;html=1;entryX=0.5;entryY=0;entryDx=0;entryDy=0;" parent="WIyWlLk6GJQsqaUBKTNV-1" source="EmjIf0o4EKdm99o1xQy6-22" target="EmjIf0o4EKdm99o1xQy6-40" edge="1">
          <mxGeometry x="-0.8008" relative="1" as="geometry">
            <Array as="points">
              <mxPoint x="250" y="780" />
              <mxPoint x="-180" y="780" />
            </Array>
            <mxPoint as="offset" />
          </mxGeometry>
        </mxCell>
        <mxCell id="w7Ox92A5aqky2tJf7LNV-317" value="YES&lt;br&gt;신청,수정&lt;br&gt;배출확인" style="edgeStyle=orthogonalEdgeStyle;rounded=0;orthogonalLoop=1;jettySize=auto;html=1;" parent="WIyWlLk6GJQsqaUBKTNV-1" source="EmjIf0o4EKdm99o1xQy6-22" target="w7Ox92A5aqky2tJf7LNV-384" edge="1">
          <mxGeometry x="-0.7798" relative="1" as="geometry">
            <mxPoint x="690" y="870" as="targetPoint" />
            <Array as="points">
              <mxPoint x="390" y="780" />
              <mxPoint x="590" y="780" />
            </Array>
            <mxPoint as="offset" />
          </mxGeometry>
        </mxCell>
        <mxCell id="EmjIf0o4EKdm99o1xQy6-22" value="" style="whiteSpace=wrap;html=1;rounded=0;shadow=0;comic=0;labelBackgroundColor=none;strokeWidth=1;fillColor=#000000;fontFamily=Verdana;fontSize=12;align=center;rotation=0;" parent="WIyWlLk6GJQsqaUBKTNV-1" vertex="1">
          <mxGeometry x="190" y="610" width="250" height="10" as="geometry" />
        </mxCell>
        <mxCell id="w7Ox92A5aqky2tJf7LNV-326" value="" style="edgeStyle=orthogonalEdgeStyle;rounded=0;orthogonalLoop=1;jettySize=auto;html=1;" parent="WIyWlLk6GJQsqaUBKTNV-1" source="EmjIf0o4EKdm99o1xQy6-24" target="EmjIf0o4EKdm99o1xQy6-29" edge="1">
          <mxGeometry relative="1" as="geometry" />
        </mxCell>
        <mxCell id="EmjIf0o4EKdm99o1xQy6-24" value="수거요청" style="whiteSpace=wrap;html=1;rounded=1;" parent="WIyWlLk6GJQsqaUBKTNV-1" vertex="1">
          <mxGeometry x="215" y="930" width="120" height="60" as="geometry" />
        </mxCell>
        <mxCell id="w7Ox92A5aqky2tJf7LNV-354" value="" style="edgeStyle=orthogonalEdgeStyle;rounded=0;orthogonalLoop=1;jettySize=auto;html=1;" parent="WIyWlLk6GJQsqaUBKTNV-1" source="EmjIf0o4EKdm99o1xQy6-29" target="w7Ox92A5aqky2tJf7LNV-322" edge="1">
          <mxGeometry relative="1" as="geometry" />
        </mxCell>
        <mxCell id="EmjIf0o4EKdm99o1xQy6-29" value="수거요청 팝업" style="whiteSpace=wrap;html=1;rounded=1;" parent="WIyWlLk6GJQsqaUBKTNV-1" vertex="1">
          <mxGeometry x="215" y="1080" width="120" height="60" as="geometry" />
        </mxCell>
        <mxCell id="f3Tv7JB4kyNmLcIMs9Kd-8" style="edgeStyle=orthogonalEdgeStyle;rounded=0;orthogonalLoop=1;jettySize=auto;html=1;" parent="WIyWlLk6GJQsqaUBKTNV-1" source="EmjIf0o4EKdm99o1xQy6-30" target="EmjIf0o4EKdm99o1xQy6-17" edge="1">
          <mxGeometry relative="1" as="geometry" />
        </mxCell>
        <mxCell id="EmjIf0o4EKdm99o1xQy6-30" value="해지 사유 선택" style="rounded=1;whiteSpace=wrap;html=1;" parent="WIyWlLk6GJQsqaUBKTNV-1" vertex="1">
          <mxGeometry x="-240" y="1290" width="120" height="60" as="geometry" />
        </mxCell>
        <mxCell id="w7Ox92A5aqky2tJf7LNV-363" style="edgeStyle=orthogonalEdgeStyle;rounded=0;orthogonalLoop=1;jettySize=auto;html=1;entryX=0.5;entryY=0;entryDx=0;entryDy=0;" parent="WIyWlLk6GJQsqaUBKTNV-1" source="EmjIf0o4EKdm99o1xQy6-40" target="w7Ox92A5aqky2tJf7LNV-362" edge="1">
          <mxGeometry relative="1" as="geometry" />
        </mxCell>
        <mxCell id="EmjIf0o4EKdm99o1xQy6-40" value="해지 요청" style="rounded=1;whiteSpace=wrap;html=1;" parent="WIyWlLk6GJQsqaUBKTNV-1" vertex="1">
          <mxGeometry x="-240" y="792.5" width="120" height="60" as="geometry" />
        </mxCell>
        <mxCell id="3d2tBKjzDwxo3XAQTUSo-302" style="edgeStyle=orthogonalEdgeStyle;rounded=0;orthogonalLoop=1;jettySize=auto;html=1;entryX=0;entryY=0.5;entryDx=0;entryDy=0;strokeColor=#3333FF;" parent="WIyWlLk6GJQsqaUBKTNV-1" source="EmjIf0o4EKdm99o1xQy6-17" target="EmjIf0o4EKdm99o1xQy6-3" edge="1">
          <mxGeometry relative="1" as="geometry">
            <Array as="points">
              <mxPoint x="-180" y="1990" />
              <mxPoint x="-1530" y="1990" />
              <mxPoint x="-1530" y="130" />
            </Array>
          </mxGeometry>
        </mxCell>
        <mxCell id="mL5LW55gpTMhC8oxr1yt-11" value="RETURN" style="edgeStyle=orthogonalEdgeStyle;rounded=0;orthogonalLoop=1;jettySize=auto;html=1;dashed=1;entryX=0;entryY=0.5;entryDx=0;entryDy=0;strokeColor=#7F00FF;fillColor=#ffe6cc;" parent="WIyWlLk6GJQsqaUBKTNV-1" source="EmjIf0o4EKdm99o1xQy6-46" target="mL5LW55gpTMhC8oxr1yt-10" edge="1">
          <mxGeometry x="0.8278" relative="1" as="geometry">
            <Array as="points">
              <mxPoint x="1150" y="1860" />
              <mxPoint x="1150" y="1000" />
            </Array>
            <mxPoint x="1160" y="990" as="targetPoint" />
            <mxPoint y="1" as="offset" />
          </mxGeometry>
        </mxCell>
        <mxCell id="EmjIf0o4EKdm99o1xQy6-46" value="수거신청 완료" style="ellipse;whiteSpace=wrap;html=1;aspect=fixed;fillColor=#000000;fontColor=#FFFFFF;" parent="WIyWlLk6GJQsqaUBKTNV-1" vertex="1">
          <mxGeometry x="549.5" y="1830" width="81" height="80" as="geometry" />
        </mxCell>
        <mxCell id="w7Ox92A5aqky2tJf7LNV-348" value="" style="edgeStyle=orthogonalEdgeStyle;rounded=0;orthogonalLoop=1;jettySize=auto;html=1;" parent="WIyWlLk6GJQsqaUBKTNV-1" source="EmjIf0o4EKdm99o1xQy6-51" target="w7Ox92A5aqky2tJf7LNV-336" edge="1">
          <mxGeometry relative="1" as="geometry" />
        </mxCell>
        <mxCell id="EmjIf0o4EKdm99o1xQy6-51" value="수거요청 수정" style="whiteSpace=wrap;html=1;rounded=1;" parent="WIyWlLk6GJQsqaUBKTNV-1" vertex="1">
          <mxGeometry x="530" y="932.5" width="120" height="60" as="geometry" />
        </mxCell>
        <mxCell id="EmjIf0o4EKdm99o1xQy6-52" value="YES&lt;br&gt;(성공)" style="edgeStyle=orthogonalEdgeStyle;rounded=0;orthogonalLoop=1;jettySize=auto;html=1;strokeColor=#FF3333;exitX=0.5;exitY=1;exitDx=0;exitDy=0;" parent="WIyWlLk6GJQsqaUBKTNV-1" source="EmjIf0o4EKdm99o1xQy6-54" target="EmjIf0o4EKdm99o1xQy6-55" edge="1">
          <mxGeometry x="-0.6048" relative="1" as="geometry">
            <mxPoint as="offset" />
          </mxGeometry>
        </mxCell>
        <mxCell id="EmjIf0o4EKdm99o1xQy6-53" value="NO&lt;br&gt;(실패)" style="edgeStyle=orthogonalEdgeStyle;rounded=0;orthogonalLoop=1;jettySize=auto;html=1;entryX=1;entryY=0.5;entryDx=0;entryDy=0;strokeColor=#FF3333;exitX=1;exitY=0.5;exitDx=0;exitDy=0;" parent="WIyWlLk6GJQsqaUBKTNV-1" source="EmjIf0o4EKdm99o1xQy6-54" target="EmjIf0o4EKdm99o1xQy6-11" edge="1">
          <mxGeometry relative="1" as="geometry">
            <Array as="points">
              <mxPoint x="-700.0000000000001" y="1580" />
              <mxPoint x="-700.0000000000001" y="1110" />
            </Array>
          </mxGeometry>
        </mxCell>
        <mxCell id="EmjIf0o4EKdm99o1xQy6-54" value="결제 진행" style="rhombus;whiteSpace=wrap;html=1;rounded=1;" parent="WIyWlLk6GJQsqaUBKTNV-1" vertex="1">
          <mxGeometry x="-870" y="1540" width="100" height="80" as="geometry" />
        </mxCell>
        <mxCell id="EmjIf0o4EKdm99o1xQy6-56" value="YES&lt;br style=&quot;border-color: var(--border-color);&quot;&gt;(잔여 수거권 있음)" style="edgeStyle=orthogonalEdgeStyle;rounded=0;orthogonalLoop=1;jettySize=auto;html=1;entryX=0.5;entryY=0;entryDx=0;entryDy=0;strokeColor=#FF0000;" parent="WIyWlLk6GJQsqaUBKTNV-1" target="EmjIf0o4EKdm99o1xQy6-22" edge="1">
          <mxGeometry x="-0.6471" relative="1" as="geometry">
            <mxPoint x="149.85999999999967" y="620" as="targetPoint" />
            <mxPoint as="offset" />
            <mxPoint x="74.85999999999967" y="270" as="sourcePoint" />
          </mxGeometry>
        </mxCell>
        <mxCell id="EmjIf0o4EKdm99o1xQy6-60" value="재구매&amp;nbsp;" style="ellipse;whiteSpace=wrap;html=1;rounded=1;fillColor=#000000;fontColor=#FFFFFF;" parent="WIyWlLk6GJQsqaUBKTNV-1" vertex="1">
          <mxGeometry x="-1110" y="1840" width="80" height="80" as="geometry" />
        </mxCell>
        <mxCell id="EmjIf0o4EKdm99o1xQy6-61" value="쇼핑 시 안내 했던 내용에 대해&amp;nbsp;&lt;br&gt;한 번 더 안내" style="text;html=1;strokeColor=#FF3333;fillColor=#FFFF33;align=center;verticalAlign=middle;whiteSpace=wrap;rounded=0;sketch=1;curveFitting=1;jiggle=2;" parent="WIyWlLk6GJQsqaUBKTNV-1" vertex="1">
          <mxGeometry x="20.000000000000114" y="1600" width="250" height="110" as="geometry" />
        </mxCell>
        <mxCell id="EmjIf0o4EKdm99o1xQy6-63" value="NO" style="edgeStyle=orthogonalEdgeStyle;rounded=0;orthogonalLoop=1;jettySize=auto;html=1;exitX=1;exitY=0.5;exitDx=0;exitDy=0;entryX=0.53;entryY=-0.028;entryDx=0;entryDy=0;strokeColor=#FF0000;entryPerimeter=0;" parent="WIyWlLk6GJQsqaUBKTNV-1" source="EmjIf0o4EKdm99o1xQy6-64" target="EmjIf0o4EKdm99o1xQy6-6" edge="1">
          <mxGeometry x="-0.4747" relative="1" as="geometry">
            <mxPoint as="offset" />
          </mxGeometry>
        </mxCell>
        <mxCell id="f3Tv7JB4kyNmLcIMs9Kd-16" value="YES" style="edgeStyle=orthogonalEdgeStyle;rounded=0;orthogonalLoop=1;jettySize=auto;html=1;strokeColor=#FF3333;" parent="WIyWlLk6GJQsqaUBKTNV-1" source="EmjIf0o4EKdm99o1xQy6-64" target="f3Tv7JB4kyNmLcIMs9Kd-0" edge="1">
          <mxGeometry x="-0.4689" relative="1" as="geometry">
            <mxPoint as="offset" />
          </mxGeometry>
        </mxCell>
        <mxCell id="EmjIf0o4EKdm99o1xQy6-64" value="과거 &lt;br&gt;구매 내역&lt;br&gt;존재 여부" style="rhombus;whiteSpace=wrap;html=1;rounded=1;" parent="WIyWlLk6GJQsqaUBKTNV-1" vertex="1">
          <mxGeometry x="-993" y="660" width="96" height="80" as="geometry" />
        </mxCell>
        <mxCell id="w7Ox92A5aqky2tJf7LNV-359" value="NO" style="edgeStyle=orthogonalEdgeStyle;rounded=0;orthogonalLoop=1;jettySize=auto;html=1;entryX=1;entryY=0.5;entryDx=0;entryDy=0;strokeColor=#FF3333;" parent="WIyWlLk6GJQsqaUBKTNV-1" source="EmjIf0o4EKdm99o1xQy6-66" target="EmjIf0o4EKdm99o1xQy6-29" edge="1">
          <mxGeometry x="-0.8797" relative="1" as="geometry">
            <Array as="points">
              <mxPoint x="415" y="1450" />
              <mxPoint x="415" y="1110" />
            </Array>
            <mxPoint as="offset" />
          </mxGeometry>
        </mxCell>
        <mxCell id="w7Ox92A5aqky2tJf7LNV-388" value="YES" style="edgeStyle=orthogonalEdgeStyle;rounded=0;orthogonalLoop=1;jettySize=auto;html=1;entryX=0.25;entryY=0;entryDx=0;entryDy=0;strokeColor=#FF3333;" parent="WIyWlLk6GJQsqaUBKTNV-1" source="EmjIf0o4EKdm99o1xQy6-66" target="w7Ox92A5aqky2tJf7LNV-319" edge="1">
          <mxGeometry x="-0.8216" relative="1" as="geometry">
            <Array as="points">
              <mxPoint x="280" y="1650" />
              <mxPoint x="520" y="1650" />
              <mxPoint x="520" y="1740" />
            </Array>
            <mxPoint as="offset" />
          </mxGeometry>
        </mxCell>
        <mxCell id="EmjIf0o4EKdm99o1xQy6-66" value="수거 가능&lt;br&gt;날짜 선택" style="rhombus;whiteSpace=wrap;html=1;rounded=1;fillColor=default;" parent="WIyWlLk6GJQsqaUBKTNV-1" vertex="1">
          <mxGeometry x="225" y="1415" width="100" height="80" as="geometry" />
        </mxCell>
        <mxCell id="EmjIf0o4EKdm99o1xQy6-75" value="" style="edgeStyle=orthogonalEdgeStyle;rounded=0;orthogonalLoop=1;jettySize=auto;html=1;" parent="WIyWlLk6GJQsqaUBKTNV-1" edge="1">
          <mxGeometry relative="1" as="geometry" />
        </mxCell>
        <mxCell id="mL5LW55gpTMhC8oxr1yt-6" value="" style="endArrow=none;html=1;rounded=0;" parent="WIyWlLk6GJQsqaUBKTNV-1" target="mL5LW55gpTMhC8oxr1yt-1" edge="1">
          <mxGeometry width="50" height="50" relative="1" as="geometry">
            <mxPoint x="1241.1454545454544" y="220" as="sourcePoint" />
            <mxPoint x="1240" y="-70" as="targetPoint" />
          </mxGeometry>
        </mxCell>
        <mxCell id="3d2tBKjzDwxo3XAQTUSo-304" value="" style="endArrow=none;html=1;rounded=0;" parent="WIyWlLk6GJQsqaUBKTNV-1" source="mL5LW55gpTMhC8oxr1yt-10" target="mL5LW55gpTMhC8oxr1yt-1" edge="1">
          <mxGeometry width="50" height="50" relative="1" as="geometry">
            <mxPoint x="1240" y="1940" as="sourcePoint" />
            <mxPoint x="1241" y="220" as="targetPoint" />
          </mxGeometry>
        </mxCell>
        <mxCell id="mL5LW55gpTMhC8oxr1yt-1" value="해지 신청 데이터" style="rounded=0;whiteSpace=wrap;html=1;fillColor=#fff2cc;strokeColor=#d6b656;" parent="WIyWlLk6GJQsqaUBKTNV-1" vertex="1">
          <mxGeometry x="1185" y="720" width="120" height="60" as="geometry" />
        </mxCell>
        <mxCell id="3d2tBKjzDwxo3XAQTUSo-309" value="USE" style="edgeStyle=orthogonalEdgeStyle;rounded=0;orthogonalLoop=1;jettySize=auto;html=1;dashed=1;strokeColor=#7F00FF;fillColor=#ffe6cc;" parent="WIyWlLk6GJQsqaUBKTNV-1" source="mL5LW55gpTMhC8oxr1yt-10" target="hfUMV4JjxT8LaMkukJHo-106" edge="1">
          <mxGeometry x="-0.5758" relative="1" as="geometry">
            <mxPoint as="offset" />
          </mxGeometry>
        </mxCell>
        <mxCell id="3d2tBKjzDwxo3XAQTUSo-306" value="USE" style="edgeStyle=orthogonalEdgeStyle;rounded=0;orthogonalLoop=1;jettySize=auto;html=1;dashed=1;strokeColor=#7F00FF;fillColor=#ffe6cc;" parent="WIyWlLk6GJQsqaUBKTNV-1" source="mL5LW55gpTMhC8oxr1yt-1" edge="1">
          <mxGeometry x="-0.8586" relative="1" as="geometry">
            <mxPoint x="2570" y="970" as="targetPoint" />
            <mxPoint as="offset" />
          </mxGeometry>
        </mxCell>
        <mxCell id="3d2tBKjzDwxo3XAQTUSo-310" value="" style="endArrow=none;html=1;rounded=0;" parent="WIyWlLk6GJQsqaUBKTNV-1" target="mL5LW55gpTMhC8oxr1yt-10" edge="1">
          <mxGeometry width="50" height="50" relative="1" as="geometry">
            <mxPoint x="1240" y="1940" as="sourcePoint" />
            <mxPoint x="1245" y="780" as="targetPoint" />
          </mxGeometry>
        </mxCell>
        <mxCell id="mL5LW55gpTMhC8oxr1yt-10" value="수거신청, 배출 데이터" style="rounded=0;whiteSpace=wrap;html=1;fillColor=#fff2cc;strokeColor=#d6b656;" parent="WIyWlLk6GJQsqaUBKTNV-1" vertex="1">
          <mxGeometry x="1185" y="970" width="120" height="60" as="geometry" />
        </mxCell>
        <mxCell id="3d2tBKjzDwxo3XAQTUSo-312" value="RETURN" style="edgeStyle=orthogonalEdgeStyle;rounded=0;orthogonalLoop=1;jettySize=auto;html=1;strokeColor=#7F00FF;dashed=1;entryX=0.667;entryY=1;entryDx=0;entryDy=0;entryPerimeter=0;" parent="WIyWlLk6GJQsqaUBKTNV-1" source="3d2tBKjzDwxo3XAQTUSo-134" target="hfUMV4JjxT8LaMkukJHo-342" edge="1">
          <mxGeometry x="0.8596" relative="1" as="geometry">
            <mxPoint x="2300" y="1730" as="sourcePoint" />
            <mxPoint x="2960" y="830" as="targetPoint" />
            <Array as="points">
              <mxPoint x="2300" y="1960" />
              <mxPoint x="2960" y="1960" />
            </Array>
            <mxPoint as="offset" />
          </mxGeometry>
        </mxCell>
        <mxCell id="f3Tv7JB4kyNmLcIMs9Kd-14" value="USE" style="edgeStyle=orthogonalEdgeStyle;rounded=0;orthogonalLoop=1;jettySize=auto;html=1;entryX=0.75;entryY=0;entryDx=0;entryDy=0;dashed=1;strokeColor=#7F00FF;" parent="WIyWlLk6GJQsqaUBKTNV-1" source="hfUMV4JjxT8LaMkukJHo-342" target="hfUMV4JjxT8LaMkukJHo-106" edge="1">
          <mxGeometry x="-0.8966" relative="1" as="geometry">
            <mxPoint as="offset" />
          </mxGeometry>
        </mxCell>
        <mxCell id="hfUMV4JjxT8LaMkukJHo-342" value="수거지 명단 정보" style="rounded=0;whiteSpace=wrap;html=1;fillColor=#fff2cc;strokeColor=#d6b656;" parent="WIyWlLk6GJQsqaUBKTNV-1" vertex="1">
          <mxGeometry x="2880" y="780" width="120" height="40" as="geometry" />
        </mxCell>
        <mxCell id="f3Tv7JB4kyNmLcIMs9Kd-1" value="YES&lt;br&gt;(대기)" style="edgeStyle=orthogonalEdgeStyle;rounded=0;orthogonalLoop=1;jettySize=auto;html=1;exitX=0.499;exitY=0.968;exitDx=0;exitDy=0;exitPerimeter=0;strokeColor=#FF3333;" parent="WIyWlLk6GJQsqaUBKTNV-1" source="f3Tv7JB4kyNmLcIMs9Kd-0" target="EmjIf0o4EKdm99o1xQy6-60" edge="1">
          <mxGeometry x="-0.8707" relative="1" as="geometry">
            <mxPoint as="offset" />
          </mxGeometry>
        </mxCell>
        <mxCell id="f3Tv7JB4kyNmLcIMs9Kd-2" value="NO&lt;br&gt;(해지)" style="edgeStyle=orthogonalEdgeStyle;rounded=0;orthogonalLoop=1;jettySize=auto;html=1;exitX=0.034;exitY=0.494;exitDx=0;exitDy=0;exitPerimeter=0;strokeColor=#FF3333;" parent="WIyWlLk6GJQsqaUBKTNV-1" source="f3Tv7JB4kyNmLcIMs9Kd-0" edge="1">
          <mxGeometry x="-0.9071" relative="1" as="geometry">
            <mxPoint x="-1120" y="840" as="sourcePoint" />
            <mxPoint x="-200" y="790" as="targetPoint" />
            <Array as="points">
              <mxPoint x="-1120" y="840" />
              <mxPoint x="-1120" y="580" />
              <mxPoint x="-200" y="580" />
              <mxPoint x="-200" y="760" />
            </Array>
            <mxPoint as="offset" />
          </mxGeometry>
        </mxCell>
        <mxCell id="f3Tv7JB4kyNmLcIMs9Kd-0" value="내역 확인" style="rhombus;whiteSpace=wrap;html=1;rounded=1;" parent="WIyWlLk6GJQsqaUBKTNV-1" vertex="1">
          <mxGeometry x="-1118" y="800" width="96" height="80" as="geometry" />
        </mxCell>
        <mxCell id="w7Ox92A5aqky2tJf7LNV-346" value="" style="edgeStyle=orthogonalEdgeStyle;rounded=0;orthogonalLoop=1;jettySize=auto;html=1;" parent="WIyWlLk6GJQsqaUBKTNV-1" source="w7Ox92A5aqky2tJf7LNV-319" target="EmjIf0o4EKdm99o1xQy6-46" edge="1">
          <mxGeometry relative="1" as="geometry" />
        </mxCell>
        <mxCell id="w7Ox92A5aqky2tJf7LNV-319" value="" style="whiteSpace=wrap;html=1;rounded=0;shadow=0;comic=0;labelBackgroundColor=none;strokeWidth=1;fillColor=#000000;fontFamily=Verdana;fontSize=12;align=center;rotation=0;" parent="WIyWlLk6GJQsqaUBKTNV-1" vertex="1">
          <mxGeometry x="465" y="1740" width="250" height="10" as="geometry" />
        </mxCell>
        <mxCell id="w7Ox92A5aqky2tJf7LNV-329" value="YES" style="edgeStyle=orthogonalEdgeStyle;rounded=0;orthogonalLoop=1;jettySize=auto;html=1;strokeColor=#FF3333;entryX=0.5;entryY=0;entryDx=0;entryDy=0;" parent="WIyWlLk6GJQsqaUBKTNV-1" source="w7Ox92A5aqky2tJf7LNV-322" target="EmjIf0o4EKdm99o1xQy6-66" edge="1">
          <mxGeometry relative="1" as="geometry">
            <mxPoint x="275" y="1435" as="targetPoint" />
          </mxGeometry>
        </mxCell>
        <mxCell id="w7Ox92A5aqky2tJf7LNV-358" value="NO" style="edgeStyle=orthogonalEdgeStyle;rounded=0;orthogonalLoop=1;jettySize=auto;html=1;entryX=1.017;entryY=0.807;entryDx=0;entryDy=0;entryPerimeter=0;strokeColor=#FF3333;" parent="WIyWlLk6GJQsqaUBKTNV-1" source="w7Ox92A5aqky2tJf7LNV-322" target="EmjIf0o4EKdm99o1xQy6-29" edge="1">
          <mxGeometry x="-0.8518" relative="1" as="geometry">
            <Array as="points">
              <mxPoint x="385" y="1330" />
              <mxPoint x="385" y="1128" />
            </Array>
            <mxPoint as="offset" />
          </mxGeometry>
        </mxCell>
        <mxCell id="w7Ox92A5aqky2tJf7LNV-322" value="수거 가능&lt;br&gt;매수 선택" style="rhombus;whiteSpace=wrap;html=1;rounded=1;" parent="WIyWlLk6GJQsqaUBKTNV-1" vertex="1">
          <mxGeometry x="225" y="1290" width="100" height="80" as="geometry" />
        </mxCell>
        <mxCell id="EmjIf0o4EKdm99o1xQy6-17" value="해지 신청 &lt;br&gt;완료" style="ellipse;whiteSpace=wrap;html=1;rounded=1;fillColor=#000000;fontColor=#FFFFFF;" parent="WIyWlLk6GJQsqaUBKTNV-1" vertex="1">
          <mxGeometry x="-220" y="1830" width="80" height="80" as="geometry" />
        </mxCell>
        <mxCell id="w7Ox92A5aqky2tJf7LNV-334" value="수거요청 팝업" style="whiteSpace=wrap;html=1;rounded=1;" parent="WIyWlLk6GJQsqaUBKTNV-1" vertex="1">
          <mxGeometry x="530" y="1162.5" width="120" height="60" as="geometry" />
        </mxCell>
        <mxCell id="w7Ox92A5aqky2tJf7LNV-349" value="YES" style="edgeStyle=orthogonalEdgeStyle;rounded=0;orthogonalLoop=1;jettySize=auto;html=1;strokeColor=#FF3333;" parent="WIyWlLk6GJQsqaUBKTNV-1" source="w7Ox92A5aqky2tJf7LNV-336" target="w7Ox92A5aqky2tJf7LNV-334" edge="1">
          <mxGeometry relative="1" as="geometry" />
        </mxCell>
        <mxCell id="w7Ox92A5aqky2tJf7LNV-393" value="NO" style="edgeStyle=orthogonalEdgeStyle;rounded=0;orthogonalLoop=1;jettySize=auto;html=1;strokeColor=#FF3333;" parent="WIyWlLk6GJQsqaUBKTNV-1" source="w7Ox92A5aqky2tJf7LNV-336" target="w7Ox92A5aqky2tJf7LNV-352" edge="1">
          <mxGeometry x="-0.6552" relative="1" as="geometry">
            <mxPoint x="1" as="offset" />
            <Array as="points">
              <mxPoint x="755" y="1073" />
            </Array>
          </mxGeometry>
        </mxCell>
        <mxCell id="w7Ox92A5aqky2tJf7LNV-336" value="수거 수정 &lt;br&gt;여부" style="rhombus;whiteSpace=wrap;html=1;rounded=1;" parent="WIyWlLk6GJQsqaUBKTNV-1" vertex="1">
          <mxGeometry x="540" y="1032.5" width="100" height="80" as="geometry" />
        </mxCell>
        <mxCell id="w7Ox92A5aqky2tJf7LNV-340" value="" style="edgeStyle=orthogonalEdgeStyle;rounded=0;orthogonalLoop=1;jettySize=auto;html=1;" parent="WIyWlLk6GJQsqaUBKTNV-1" target="w7Ox92A5aqky2tJf7LNV-343" edge="1">
          <mxGeometry relative="1" as="geometry">
            <mxPoint x="590" y="1222.5" as="sourcePoint" />
          </mxGeometry>
        </mxCell>
        <mxCell id="w7Ox92A5aqky2tJf7LNV-342" value="NO" style="edgeStyle=orthogonalEdgeStyle;rounded=0;orthogonalLoop=1;jettySize=auto;html=1;strokeColor=#FF3333;entryX=1;entryY=0.75;entryDx=0;entryDy=0;" parent="WIyWlLk6GJQsqaUBKTNV-1" source="w7Ox92A5aqky2tJf7LNV-343" target="w7Ox92A5aqky2tJf7LNV-334" edge="1">
          <mxGeometry x="-0.6649" relative="1" as="geometry">
            <mxPoint x="920" y="1232.5" as="targetPoint" />
            <Array as="points">
              <mxPoint x="690" y="1332.5" />
              <mxPoint x="690" y="1207.5" />
            </Array>
            <mxPoint as="offset" />
          </mxGeometry>
        </mxCell>
        <mxCell id="w7Ox92A5aqky2tJf7LNV-355" value="YES" style="edgeStyle=orthogonalEdgeStyle;rounded=0;orthogonalLoop=1;jettySize=auto;html=1;strokeColor=#FF3333;" parent="WIyWlLk6GJQsqaUBKTNV-1" source="w7Ox92A5aqky2tJf7LNV-343" target="w7Ox92A5aqky2tJf7LNV-344" edge="1">
          <mxGeometry relative="1" as="geometry" />
        </mxCell>
        <mxCell id="w7Ox92A5aqky2tJf7LNV-343" value="수거 가능&lt;br&gt;&amp;nbsp;매수 선택" style="rhombus;whiteSpace=wrap;html=1;rounded=1;" parent="WIyWlLk6GJQsqaUBKTNV-1" vertex="1">
          <mxGeometry x="540" y="1267.5" width="100" height="80" as="geometry" />
        </mxCell>
        <mxCell id="w7Ox92A5aqky2tJf7LNV-360" value="NO" style="edgeStyle=orthogonalEdgeStyle;rounded=0;orthogonalLoop=1;jettySize=auto;html=1;entryX=1;entryY=0.25;entryDx=0;entryDy=0;strokeColor=#FF3333;" parent="WIyWlLk6GJQsqaUBKTNV-1" source="w7Ox92A5aqky2tJf7LNV-344" target="w7Ox92A5aqky2tJf7LNV-334" edge="1">
          <mxGeometry x="-0.8497" relative="1" as="geometry">
            <Array as="points">
              <mxPoint x="710" y="1447.5" />
              <mxPoint x="710" y="1177.5" />
            </Array>
            <mxPoint x="-1" as="offset" />
          </mxGeometry>
        </mxCell>
        <mxCell id="w7Ox92A5aqky2tJf7LNV-387" value="YES" style="edgeStyle=orthogonalEdgeStyle;rounded=0;orthogonalLoop=1;jettySize=auto;html=1;entryX=0.5;entryY=0;entryDx=0;entryDy=0;strokeColor=#FF3333;" parent="WIyWlLk6GJQsqaUBKTNV-1" source="w7Ox92A5aqky2tJf7LNV-344" target="w7Ox92A5aqky2tJf7LNV-319" edge="1">
          <mxGeometry x="-0.7255" relative="1" as="geometry">
            <mxPoint as="offset" />
          </mxGeometry>
        </mxCell>
        <mxCell id="w7Ox92A5aqky2tJf7LNV-344" value="수거 가능&lt;br&gt;날짜 선택" style="rhombus;whiteSpace=wrap;html=1;rounded=1;fillColor=default;" parent="WIyWlLk6GJQsqaUBKTNV-1" vertex="1">
          <mxGeometry x="540" y="1415" width="100" height="80" as="geometry" />
        </mxCell>
        <mxCell id="w7Ox92A5aqky2tJf7LNV-352" value="수정 불가" style="ellipse;whiteSpace=wrap;html=1;aspect=fixed;fillColor=#000000;fontColor=#FFFFFF;" parent="WIyWlLk6GJQsqaUBKTNV-1" vertex="1">
          <mxGeometry x="715" y="1460" width="80" height="80" as="geometry" />
        </mxCell>
        <mxCell id="w7Ox92A5aqky2tJf7LNV-364" value="YES" style="edgeStyle=orthogonalEdgeStyle;rounded=0;orthogonalLoop=1;jettySize=auto;html=1;strokeColor=#FF3333;" parent="WIyWlLk6GJQsqaUBKTNV-1" source="w7Ox92A5aqky2tJf7LNV-362" target="EmjIf0o4EKdm99o1xQy6-30" edge="1">
          <mxGeometry x="-0.4286" relative="1" as="geometry">
            <mxPoint as="offset" />
          </mxGeometry>
        </mxCell>
        <mxCell id="w7Ox92A5aqky2tJf7LNV-365" value="NO" style="edgeStyle=orthogonalEdgeStyle;rounded=0;orthogonalLoop=1;jettySize=auto;html=1;entryX=0.5;entryY=1;entryDx=0;entryDy=0;strokeColor=#FF3333;" parent="WIyWlLk6GJQsqaUBKTNV-1" source="w7Ox92A5aqky2tJf7LNV-362" target="EmjIf0o4EKdm99o1xQy6-19" edge="1">
          <mxGeometry x="-0.84" relative="1" as="geometry">
            <mxPoint x="1" as="offset" />
          </mxGeometry>
        </mxCell>
        <mxCell id="w7Ox92A5aqky2tJf7LNV-362" value="잔여 회수권&lt;br&gt;환불 요청" style="rhombus;whiteSpace=wrap;html=1;rounded=1;" parent="WIyWlLk6GJQsqaUBKTNV-1" vertex="1">
          <mxGeometry x="-230" y="1000" width="100" height="80" as="geometry" />
        </mxCell>
        <mxCell id="w7Ox92A5aqky2tJf7LNV-366" value="" style="edgeStyle=orthogonalEdgeStyle;rounded=0;orthogonalLoop=1;jettySize=auto;html=1;strokeColor=#3333FF;entryX=0;entryY=0.5;entryDx=0;entryDy=0;" parent="WIyWlLk6GJQsqaUBKTNV-1" source="EmjIf0o4EKdm99o1xQy6-46" target="EmjIf0o4EKdm99o1xQy6-3" edge="1">
          <mxGeometry relative="1" as="geometry">
            <Array as="points">
              <mxPoint x="590" y="1990" />
              <mxPoint x="-1530" y="1990" />
              <mxPoint x="-1530" y="130" />
            </Array>
            <mxPoint x="656" y="1870" as="sourcePoint" />
            <mxPoint x="-950" y="1970" as="targetPoint" />
          </mxGeometry>
        </mxCell>
        <mxCell id="EmjIf0o4EKdm99o1xQy6-55" value="결제 완료" style="ellipse;whiteSpace=wrap;html=1;rounded=1;fillColor=#000000;fontColor=#FFFFFF;" parent="WIyWlLk6GJQsqaUBKTNV-1" vertex="1">
          <mxGeometry x="-860" y="1830" width="80" height="80" as="geometry" />
        </mxCell>
        <mxCell id="BCwJv8wF7J041A8osd7Z-109" value="YES" style="edgeStyle=orthogonalEdgeStyle;rounded=0;orthogonalLoop=1;jettySize=auto;html=1;strokeColor=#FF3333;" parent="WIyWlLk6GJQsqaUBKTNV-1" source="w7Ox92A5aqky2tJf7LNV-369" target="BCwJv8wF7J041A8osd7Z-106" edge="1">
          <mxGeometry relative="1" as="geometry" />
        </mxCell>
        <mxCell id="BCwJv8wF7J041A8osd7Z-113" value="NO" style="edgeStyle=orthogonalEdgeStyle;rounded=0;orthogonalLoop=1;jettySize=auto;html=1;entryX=1;entryY=0.5;entryDx=0;entryDy=0;strokeColor=#FF3333;" parent="WIyWlLk6GJQsqaUBKTNV-1" source="w7Ox92A5aqky2tJf7LNV-369" target="w7Ox92A5aqky2tJf7LNV-384" edge="1">
          <mxGeometry x="-0.9583" relative="1" as="geometry">
            <Array as="points">
              <mxPoint x="1040" y="1070" />
              <mxPoint x="1040" y="865" />
            </Array>
            <mxPoint as="offset" />
          </mxGeometry>
        </mxCell>
        <mxCell id="w7Ox92A5aqky2tJf7LNV-369" value="수거신청 이력" style="rhombus;whiteSpace=wrap;html=1;rounded=1;" parent="WIyWlLk6GJQsqaUBKTNV-1" vertex="1">
          <mxGeometry x="900" y="1032.5" width="100" height="80" as="geometry" />
        </mxCell>
        <mxCell id="BCwJv8wF7J041A8osd7Z-116" value="RETURN" style="edgeStyle=orthogonalEdgeStyle;rounded=0;orthogonalLoop=1;jettySize=auto;html=1;entryX=0;entryY=0.75;entryDx=0;entryDy=0;dashed=1;strokeColor=#9933FF;" parent="WIyWlLk6GJQsqaUBKTNV-1" source="w7Ox92A5aqky2tJf7LNV-372" target="mL5LW55gpTMhC8oxr1yt-10" edge="1">
          <mxGeometry relative="1" as="geometry" />
        </mxCell>
        <mxCell id="w7Ox92A5aqky2tJf7LNV-372" value="배출 완료" style="ellipse;whiteSpace=wrap;html=1;aspect=fixed;fillColor=#000000;fontColor=#FFFFFF;" parent="WIyWlLk6GJQsqaUBKTNV-1" vertex="1">
          <mxGeometry x="910" y="1452.5" width="80" height="80" as="geometry" />
        </mxCell>
        <mxCell id="w7Ox92A5aqky2tJf7LNV-390" style="edgeStyle=orthogonalEdgeStyle;rounded=0;orthogonalLoop=1;jettySize=auto;html=1;" parent="WIyWlLk6GJQsqaUBKTNV-1" source="w7Ox92A5aqky2tJf7LNV-384" target="EmjIf0o4EKdm99o1xQy6-24" edge="1">
          <mxGeometry relative="1" as="geometry">
            <Array as="points">
              <mxPoint x="490" y="900" />
              <mxPoint x="275" y="900" />
            </Array>
          </mxGeometry>
        </mxCell>
        <mxCell id="w7Ox92A5aqky2tJf7LNV-391" value="" style="edgeStyle=orthogonalEdgeStyle;rounded=0;orthogonalLoop=1;jettySize=auto;html=1;" parent="WIyWlLk6GJQsqaUBKTNV-1" edge="1">
          <mxGeometry relative="1" as="geometry">
            <mxPoint x="480" y="870" as="sourcePoint" />
            <mxPoint x="590" y="932.5" as="targetPoint" />
            <Array as="points">
              <mxPoint x="590" y="870" />
            </Array>
          </mxGeometry>
        </mxCell>
        <mxCell id="BCwJv8wF7J041A8osd7Z-114" style="edgeStyle=orthogonalEdgeStyle;rounded=0;orthogonalLoop=1;jettySize=auto;html=1;" parent="WIyWlLk6GJQsqaUBKTNV-1" source="w7Ox92A5aqky2tJf7LNV-384" target="BCwJv8wF7J041A8osd7Z-103" edge="1">
          <mxGeometry relative="1" as="geometry">
            <Array as="points">
              <mxPoint x="700" y="900" />
              <mxPoint x="940" y="900" />
            </Array>
          </mxGeometry>
        </mxCell>
        <mxCell id="w7Ox92A5aqky2tJf7LNV-384" value="" style="whiteSpace=wrap;html=1;rounded=0;shadow=0;comic=0;labelBackgroundColor=none;strokeWidth=1;fillColor=#000000;fontFamily=Verdana;fontSize=12;align=center;rotation=0;" parent="WIyWlLk6GJQsqaUBKTNV-1" vertex="1">
          <mxGeometry x="475" y="860" width="250" height="10" as="geometry" />
        </mxCell>
        <mxCell id="BCwJv8wF7J041A8osd7Z-6" style="edgeStyle=orthogonalEdgeStyle;rounded=0;orthogonalLoop=1;jettySize=auto;html=1;entryX=0.5;entryY=0;entryDx=0;entryDy=0;" parent="WIyWlLk6GJQsqaUBKTNV-1" source="BCwJv8wF7J041A8osd7Z-0" target="BCwJv8wF7J041A8osd7Z-1" edge="1">
          <mxGeometry relative="1" as="geometry" />
        </mxCell>
        <mxCell id="BCwJv8wF7J041A8osd7Z-0" value="로그인" style="ellipse;whiteSpace=wrap;html=1;" parent="WIyWlLk6GJQsqaUBKTNV-1" vertex="1">
          <mxGeometry x="-190" y="2380" width="120" height="80" as="geometry" />
        </mxCell>
        <mxCell id="BCwJv8wF7J041A8osd7Z-3" value="" style="edgeStyle=orthogonalEdgeStyle;rounded=0;orthogonalLoop=1;jettySize=auto;html=1;" parent="WIyWlLk6GJQsqaUBKTNV-1" source="BCwJv8wF7J041A8osd7Z-1" target="BCwJv8wF7J041A8osd7Z-2" edge="1">
          <mxGeometry relative="1" as="geometry" />
        </mxCell>
        <mxCell id="BCwJv8wF7J041A8osd7Z-1" value="메인 화면" style="rounded=1;whiteSpace=wrap;html=1;" parent="WIyWlLk6GJQsqaUBKTNV-1" vertex="1">
          <mxGeometry x="-190" y="2530" width="120" height="60" as="geometry" />
        </mxCell>
        <mxCell id="BCwJv8wF7J041A8osd7Z-5" value="" style="edgeStyle=orthogonalEdgeStyle;rounded=0;orthogonalLoop=1;jettySize=auto;html=1;" parent="WIyWlLk6GJQsqaUBKTNV-1" source="BCwJv8wF7J041A8osd7Z-2" target="BCwJv8wF7J041A8osd7Z-4" edge="1">
          <mxGeometry relative="1" as="geometry" />
        </mxCell>
        <mxCell id="BCwJv8wF7J041A8osd7Z-2" value="상품 리스트&lt;br&gt;" style="rounded=1;whiteSpace=wrap;html=1;" parent="WIyWlLk6GJQsqaUBKTNV-1" vertex="1">
          <mxGeometry x="-190" y="2670" width="120" height="60" as="geometry" />
        </mxCell>
        <mxCell id="BCwJv8wF7J041A8osd7Z-25" value="" style="edgeStyle=orthogonalEdgeStyle;rounded=0;orthogonalLoop=1;jettySize=auto;html=1;" parent="WIyWlLk6GJQsqaUBKTNV-1" source="BCwJv8wF7J041A8osd7Z-4" target="BCwJv8wF7J041A8osd7Z-24" edge="1">
          <mxGeometry relative="1" as="geometry" />
        </mxCell>
        <mxCell id="BCwJv8wF7J041A8osd7Z-4" value="상품상세" style="rounded=1;whiteSpace=wrap;html=1;" parent="WIyWlLk6GJQsqaUBKTNV-1" vertex="1">
          <mxGeometry x="-190" y="2810" width="120" height="60" as="geometry" />
        </mxCell>
        <mxCell id="BCwJv8wF7J041A8osd7Z-11" style="edgeStyle=orthogonalEdgeStyle;rounded=0;orthogonalLoop=1;jettySize=auto;html=1;entryX=0.5;entryY=0;entryDx=0;entryDy=0;" parent="WIyWlLk6GJQsqaUBKTNV-1" source="BCwJv8wF7J041A8osd7Z-7" target="BCwJv8wF7J041A8osd7Z-13" edge="1">
          <mxGeometry relative="1" as="geometry">
            <mxPoint x="-360" y="3460.14" as="targetPoint" />
            <Array as="points">
              <mxPoint x="-130" y="3410.14" />
              <mxPoint x="-130" y="3410.14" />
            </Array>
          </mxGeometry>
        </mxCell>
        <mxCell id="BCwJv8wF7J041A8osd7Z-15" style="edgeStyle=orthogonalEdgeStyle;rounded=0;orthogonalLoop=1;jettySize=auto;html=1;exitX=0.25;exitY=1;exitDx=0;exitDy=0;entryX=0.5;entryY=0;entryDx=0;entryDy=0;" parent="WIyWlLk6GJQsqaUBKTNV-1" source="BCwJv8wF7J041A8osd7Z-7" target="BCwJv8wF7J041A8osd7Z-12" edge="1">
          <mxGeometry relative="1" as="geometry">
            <mxPoint x="-410" y="3380.14" as="targetPoint" />
          </mxGeometry>
        </mxCell>
        <mxCell id="BCwJv8wF7J041A8osd7Z-16" style="edgeStyle=orthogonalEdgeStyle;rounded=0;orthogonalLoop=1;jettySize=auto;html=1;exitX=0.75;exitY=1;exitDx=0;exitDy=0;" parent="WIyWlLk6GJQsqaUBKTNV-1" source="BCwJv8wF7J041A8osd7Z-7" target="BCwJv8wF7J041A8osd7Z-14" edge="1">
          <mxGeometry relative="1" as="geometry">
            <mxPoint x="-70" y="3320.14" as="sourcePoint" />
            <Array as="points">
              <mxPoint x="-68" y="3385.14" />
              <mxPoint x="110" y="3385.14" />
            </Array>
          </mxGeometry>
        </mxCell>
        <mxCell id="BCwJv8wF7J041A8osd7Z-7" value="" style="whiteSpace=wrap;html=1;rounded=0;shadow=0;comic=0;labelBackgroundColor=none;strokeWidth=1;fillColor=#000000;fontFamily=Verdana;fontSize=12;align=center;rotation=0;" parent="WIyWlLk6GJQsqaUBKTNV-1" vertex="1">
          <mxGeometry x="-255" y="3270.14" width="250" height="10" as="geometry" />
        </mxCell>
        <mxCell id="BCwJv8wF7J041A8osd7Z-10" value="" style="edgeStyle=orthogonalEdgeStyle;rounded=0;orthogonalLoop=1;jettySize=auto;html=1;strokeColor=#FF0000;" parent="WIyWlLk6GJQsqaUBKTNV-1" source="BCwJv8wF7J041A8osd7Z-8" target="BCwJv8wF7J041A8osd7Z-7" edge="1">
          <mxGeometry relative="1" as="geometry" />
        </mxCell>
        <mxCell id="BCwJv8wF7J041A8osd7Z-17" value="YES" style="edgeLabel;html=1;align=center;verticalAlign=middle;resizable=0;points=[];" parent="BCwJv8wF7J041A8osd7Z-10" connectable="0" vertex="1">
          <mxGeometry x="-0.1236" relative="1" as="geometry">
            <mxPoint y="-1" as="offset" />
          </mxGeometry>
        </mxCell>
        <mxCell id="BCwJv8wF7J041A8osd7Z-27" style="edgeStyle=orthogonalEdgeStyle;rounded=0;orthogonalLoop=1;jettySize=auto;html=1;entryX=1;entryY=0.5;entryDx=0;entryDy=0;exitX=1;exitY=0.5;exitDx=0;exitDy=0;strokeColor=#FF0000;" parent="WIyWlLk6GJQsqaUBKTNV-1" source="BCwJv8wF7J041A8osd7Z-8" target="BCwJv8wF7J041A8osd7Z-24" edge="1">
          <mxGeometry relative="1" as="geometry" />
        </mxCell>
        <mxCell id="BCwJv8wF7J041A8osd7Z-28" value="NO" style="edgeLabel;html=1;align=center;verticalAlign=middle;resizable=0;points=[];" parent="BCwJv8wF7J041A8osd7Z-27" connectable="0" vertex="1">
          <mxGeometry x="0.2807" y="-1" relative="1" as="geometry">
            <mxPoint x="4" y="64" as="offset" />
          </mxGeometry>
        </mxCell>
        <mxCell id="BCwJv8wF7J041A8osd7Z-8" value="상품 구매이력" style="rhombus;whiteSpace=wrap;html=1;rounded=1;" parent="WIyWlLk6GJQsqaUBKTNV-1" vertex="1">
          <mxGeometry x="-190" y="3110.14" width="120" height="80" as="geometry" />
        </mxCell>
        <mxCell id="BCwJv8wF7J041A8osd7Z-40" style="edgeStyle=orthogonalEdgeStyle;rounded=0;orthogonalLoop=1;jettySize=auto;html=1;" parent="WIyWlLk6GJQsqaUBKTNV-1" source="BCwJv8wF7J041A8osd7Z-12" target="BCwJv8wF7J041A8osd7Z-39" edge="1">
          <mxGeometry relative="1" as="geometry" />
        </mxCell>
        <mxCell id="BCwJv8wF7J041A8osd7Z-12" value="리뷰작성" style="rounded=1;whiteSpace=wrap;html=1;" parent="WIyWlLk6GJQsqaUBKTNV-1" vertex="1">
          <mxGeometry x="-420" y="3490.14" width="120" height="60" as="geometry" />
        </mxCell>
        <mxCell id="BCwJv8wF7J041A8osd7Z-21" value="" style="edgeStyle=orthogonalEdgeStyle;rounded=0;orthogonalLoop=1;jettySize=auto;html=1;" parent="WIyWlLk6GJQsqaUBKTNV-1" source="BCwJv8wF7J041A8osd7Z-13" target="BCwJv8wF7J041A8osd7Z-20" edge="1">
          <mxGeometry relative="1" as="geometry" />
        </mxCell>
        <mxCell id="BCwJv8wF7J041A8osd7Z-13" value="리뷰수정" style="rounded=1;whiteSpace=wrap;html=1;" parent="WIyWlLk6GJQsqaUBKTNV-1" vertex="1">
          <mxGeometry x="-190" y="3490.14" width="120" height="60" as="geometry" />
        </mxCell>
        <mxCell id="BCwJv8wF7J041A8osd7Z-36" style="edgeStyle=orthogonalEdgeStyle;rounded=0;orthogonalLoop=1;jettySize=auto;html=1;entryX=0.5;entryY=0;entryDx=0;entryDy=0;" parent="WIyWlLk6GJQsqaUBKTNV-1" source="BCwJv8wF7J041A8osd7Z-14" target="BCwJv8wF7J041A8osd7Z-31" edge="1">
          <mxGeometry relative="1" as="geometry" />
        </mxCell>
        <mxCell id="BCwJv8wF7J041A8osd7Z-14" value="삭제" style="rounded=1;whiteSpace=wrap;html=1;" parent="WIyWlLk6GJQsqaUBKTNV-1" vertex="1">
          <mxGeometry x="50" y="3490.14" width="120" height="60" as="geometry" />
        </mxCell>
        <mxCell id="BCwJv8wF7J041A8osd7Z-23" value="" style="edgeStyle=orthogonalEdgeStyle;rounded=0;orthogonalLoop=1;jettySize=auto;html=1;strokeColor=#FF0000;" parent="WIyWlLk6GJQsqaUBKTNV-1" source="BCwJv8wF7J041A8osd7Z-20" target="BCwJv8wF7J041A8osd7Z-22" edge="1">
          <mxGeometry relative="1" as="geometry" />
        </mxCell>
        <mxCell id="BCwJv8wF7J041A8osd7Z-38" value="YES" style="edgeLabel;html=1;align=center;verticalAlign=middle;resizable=0;points=[];" parent="BCwJv8wF7J041A8osd7Z-23" connectable="0" vertex="1">
          <mxGeometry x="-0.2278" y="-3" relative="1" as="geometry">
            <mxPoint y="-1" as="offset" />
          </mxGeometry>
        </mxCell>
        <mxCell id="BCwJv8wF7J041A8osd7Z-20" value="본인이 작성한 리뷰인가?" style="rhombus;whiteSpace=wrap;html=1;rounded=1;" parent="WIyWlLk6GJQsqaUBKTNV-1" vertex="1">
          <mxGeometry x="-190" y="3620.14" width="120" height="80" as="geometry" />
        </mxCell>
        <mxCell id="BCwJv8wF7J041A8osd7Z-22" value="수정" style="ellipse;whiteSpace=wrap;html=1;rounded=1;fillColor=#000000;fontColor=#FFFFFF;" parent="WIyWlLk6GJQsqaUBKTNV-1" vertex="1">
          <mxGeometry x="-170" y="3780.14" width="80" height="80" as="geometry" />
        </mxCell>
        <mxCell id="BCwJv8wF7J041A8osd7Z-26" style="edgeStyle=orthogonalEdgeStyle;rounded=0;orthogonalLoop=1;jettySize=auto;html=1;entryX=0.5;entryY=0;entryDx=0;entryDy=0;" parent="WIyWlLk6GJQsqaUBKTNV-1" source="BCwJv8wF7J041A8osd7Z-24" target="BCwJv8wF7J041A8osd7Z-8" edge="1">
          <mxGeometry relative="1" as="geometry" />
        </mxCell>
        <mxCell id="BCwJv8wF7J041A8osd7Z-24" value="리뷰조회" style="rounded=1;whiteSpace=wrap;html=1;" parent="WIyWlLk6GJQsqaUBKTNV-1" vertex="1">
          <mxGeometry x="-190" y="2950" width="120" height="60" as="geometry" />
        </mxCell>
        <mxCell id="BCwJv8wF7J041A8osd7Z-30" value="" style="edgeStyle=orthogonalEdgeStyle;rounded=0;orthogonalLoop=1;jettySize=auto;html=1;strokeColor=#FF0000;" parent="WIyWlLk6GJQsqaUBKTNV-1" source="BCwJv8wF7J041A8osd7Z-31" target="BCwJv8wF7J041A8osd7Z-32" edge="1">
          <mxGeometry relative="1" as="geometry" />
        </mxCell>
        <mxCell id="BCwJv8wF7J041A8osd7Z-37" value="YES&lt;br&gt;" style="edgeLabel;html=1;align=center;verticalAlign=middle;resizable=0;points=[];" parent="BCwJv8wF7J041A8osd7Z-30" connectable="0" vertex="1">
          <mxGeometry x="-0.1206" y="-2" relative="1" as="geometry">
            <mxPoint y="-1" as="offset" />
          </mxGeometry>
        </mxCell>
        <mxCell id="BCwJv8wF7J041A8osd7Z-31" value="본인이 작성한 리뷰인가?" style="rhombus;whiteSpace=wrap;html=1;rounded=1;" parent="WIyWlLk6GJQsqaUBKTNV-1" vertex="1">
          <mxGeometry x="50" y="3620.14" width="120" height="80" as="geometry" />
        </mxCell>
        <mxCell id="BCwJv8wF7J041A8osd7Z-32" value="&amp;nbsp;삭제" style="ellipse;whiteSpace=wrap;html=1;rounded=1;fillColor=#000000;fontColor=#FFFFFF;" parent="WIyWlLk6GJQsqaUBKTNV-1" vertex="1">
          <mxGeometry x="70" y="3780.14" width="80" height="80" as="geometry" />
        </mxCell>
        <mxCell id="BCwJv8wF7J041A8osd7Z-39" value="등록완료" style="ellipse;whiteSpace=wrap;html=1;rounded=1;fillColor=#000000;fontColor=#FFFFFF;" parent="WIyWlLk6GJQsqaUBKTNV-1" vertex="1">
          <mxGeometry x="-400" y="3780.14" width="80" height="80" as="geometry" />
        </mxCell>
        <mxCell id="BCwJv8wF7J041A8osd7Z-46" value="" style="endArrow=classic;html=1;rounded=0;exitX=1;exitY=0.5;exitDx=0;exitDy=0;entryX=1;entryY=0.5;entryDx=0;entryDy=0;fontColor=#FF0000;strokeColor=#FF0000;" parent="WIyWlLk6GJQsqaUBKTNV-1" source="BCwJv8wF7J041A8osd7Z-20" target="BCwJv8wF7J041A8osd7Z-24" edge="1">
          <mxGeometry width="50" height="50" relative="1" as="geometry">
            <mxPoint x="-30" y="3650" as="sourcePoint" />
            <mxPoint x="20" y="3600" as="targetPoint" />
            <Array as="points">
              <mxPoint x="5" y="3660" />
              <mxPoint x="5" y="2980" />
            </Array>
          </mxGeometry>
        </mxCell>
        <mxCell id="BCwJv8wF7J041A8osd7Z-48" value="NO" style="edgeLabel;html=1;align=center;verticalAlign=middle;resizable=0;points=[];" parent="BCwJv8wF7J041A8osd7Z-46" connectable="0" vertex="1">
          <mxGeometry x="-0.6948" y="3" relative="1" as="geometry">
            <mxPoint as="offset" />
          </mxGeometry>
        </mxCell>
        <mxCell id="BCwJv8wF7J041A8osd7Z-47" value="" style="endArrow=classic;html=1;rounded=0;exitX=1;exitY=0.5;exitDx=0;exitDy=0;entryX=1;entryY=0.5;entryDx=0;entryDy=0;fontColor=none;noLabel=1;strokeColor=#FF0000;" parent="WIyWlLk6GJQsqaUBKTNV-1" source="BCwJv8wF7J041A8osd7Z-31" target="BCwJv8wF7J041A8osd7Z-24" edge="1">
          <mxGeometry width="50" height="50" relative="1" as="geometry">
            <mxPoint x="270" y="3630" as="sourcePoint" />
            <mxPoint x="250" y="2960" as="targetPoint" />
            <Array as="points">
              <mxPoint x="250" y="3660" />
              <mxPoint x="250" y="2980" />
            </Array>
          </mxGeometry>
        </mxCell>
        <mxCell id="BCwJv8wF7J041A8osd7Z-49" value="NO" style="edgeLabel;html=1;align=center;verticalAlign=middle;resizable=0;points=[];" parent="BCwJv8wF7J041A8osd7Z-47" connectable="0" vertex="1">
          <mxGeometry x="-0.7085" y="5" relative="1" as="geometry">
            <mxPoint y="27" as="offset" />
          </mxGeometry>
        </mxCell>
        <mxCell id="BCwJv8wF7J041A8osd7Z-50" value="리뷰" style="shape=process;whiteSpace=wrap;html=1;backgroundOutline=1;size=0;" parent="WIyWlLk6GJQsqaUBKTNV-1" vertex="1">
          <mxGeometry x="-1540" y="2240" width="5100" height="30" as="geometry" />
        </mxCell>
        <mxCell id="BCwJv8wF7J041A8osd7Z-51" value="사용자 관점" style="shape=process;whiteSpace=wrap;html=1;backgroundOutline=1;size=0;" parent="WIyWlLk6GJQsqaUBKTNV-1" vertex="1">
          <mxGeometry x="-1540" y="2270" width="2800" height="30" as="geometry" />
        </mxCell>
        <mxCell id="BCwJv8wF7J041A8osd7Z-52" value="관리자 관점" style="shape=process;whiteSpace=wrap;html=1;backgroundOutline=1;size=0;" parent="WIyWlLk6GJQsqaUBKTNV-1" vertex="1">
          <mxGeometry x="1260" y="2270" width="2300" height="30" as="geometry" />
        </mxCell>
        <mxCell id="BCwJv8wF7J041A8osd7Z-53" style="edgeStyle=orthogonalEdgeStyle;rounded=0;orthogonalLoop=1;jettySize=auto;html=1;entryX=0.5;entryY=0;entryDx=0;entryDy=0;" parent="WIyWlLk6GJQsqaUBKTNV-1" source="BCwJv8wF7J041A8osd7Z-54" target="BCwJv8wF7J041A8osd7Z-56" edge="1">
          <mxGeometry relative="1" as="geometry" />
        </mxCell>
        <mxCell id="BCwJv8wF7J041A8osd7Z-54" value="로그인" style="ellipse;whiteSpace=wrap;html=1;" parent="WIyWlLk6GJQsqaUBKTNV-1" vertex="1">
          <mxGeometry x="2340" y="2370" width="120" height="80" as="geometry" />
        </mxCell>
        <mxCell id="BCwJv8wF7J041A8osd7Z-55" value="" style="edgeStyle=orthogonalEdgeStyle;rounded=0;orthogonalLoop=1;jettySize=auto;html=1;" parent="WIyWlLk6GJQsqaUBKTNV-1" source="BCwJv8wF7J041A8osd7Z-56" target="BCwJv8wF7J041A8osd7Z-58" edge="1">
          <mxGeometry relative="1" as="geometry" />
        </mxCell>
        <mxCell id="BCwJv8wF7J041A8osd7Z-56" value="상품관리" style="rounded=1;whiteSpace=wrap;html=1;" parent="WIyWlLk6GJQsqaUBKTNV-1" vertex="1">
          <mxGeometry x="2340" y="2520" width="120" height="60" as="geometry" />
        </mxCell>
        <mxCell id="BCwJv8wF7J041A8osd7Z-57" value="" style="edgeStyle=orthogonalEdgeStyle;rounded=0;orthogonalLoop=1;jettySize=auto;html=1;" parent="WIyWlLk6GJQsqaUBKTNV-1" source="BCwJv8wF7J041A8osd7Z-58" target="BCwJv8wF7J041A8osd7Z-60" edge="1">
          <mxGeometry relative="1" as="geometry" />
        </mxCell>
        <mxCell id="BCwJv8wF7J041A8osd7Z-58" value="상품 리스트&lt;br&gt;" style="rounded=1;whiteSpace=wrap;html=1;" parent="WIyWlLk6GJQsqaUBKTNV-1" vertex="1">
          <mxGeometry x="2340" y="2750" width="120" height="60" as="geometry" />
        </mxCell>
        <mxCell id="BCwJv8wF7J041A8osd7Z-59" value="" style="edgeStyle=orthogonalEdgeStyle;rounded=0;orthogonalLoop=1;jettySize=auto;html=1;entryX=0.5;entryY=0;entryDx=0;entryDy=0;" parent="WIyWlLk6GJQsqaUBKTNV-1" source="BCwJv8wF7J041A8osd7Z-60" target="BCwJv8wF7J041A8osd7Z-92" edge="1">
          <mxGeometry relative="1" as="geometry">
            <mxPoint x="2399.999999999999" y="2940" as="targetPoint" />
          </mxGeometry>
        </mxCell>
        <mxCell id="BCwJv8wF7J041A8osd7Z-60" value="리뷰보기" style="rounded=1;whiteSpace=wrap;html=1;" parent="WIyWlLk6GJQsqaUBKTNV-1" vertex="1">
          <mxGeometry x="2340" y="2960" width="120" height="60" as="geometry" />
        </mxCell>
        <mxCell id="BCwJv8wF7J041A8osd7Z-95" style="edgeStyle=orthogonalEdgeStyle;rounded=0;orthogonalLoop=1;jettySize=auto;html=1;entryX=0.5;entryY=0;entryDx=0;entryDy=0;" parent="WIyWlLk6GJQsqaUBKTNV-1" source="BCwJv8wF7J041A8osd7Z-92" target="BCwJv8wF7J041A8osd7Z-94" edge="1">
          <mxGeometry relative="1" as="geometry" />
        </mxCell>
        <mxCell id="BCwJv8wF7J041A8osd7Z-92" value="리뷰리스트" style="rounded=1;whiteSpace=wrap;html=1;" parent="WIyWlLk6GJQsqaUBKTNV-1" vertex="1">
          <mxGeometry x="2340" y="3220.14" width="120" height="60" as="geometry" />
        </mxCell>
        <mxCell id="BCwJv8wF7J041A8osd7Z-99" style="edgeStyle=orthogonalEdgeStyle;rounded=0;orthogonalLoop=1;jettySize=auto;html=1;strokeColor=#FF0000;" parent="WIyWlLk6GJQsqaUBKTNV-1" source="BCwJv8wF7J041A8osd7Z-94" target="BCwJv8wF7J041A8osd7Z-98" edge="1">
          <mxGeometry relative="1" as="geometry" />
        </mxCell>
        <mxCell id="BCwJv8wF7J041A8osd7Z-100" value="YES" style="edgeLabel;html=1;align=center;verticalAlign=middle;resizable=0;points=[];" parent="BCwJv8wF7J041A8osd7Z-99" connectable="0" vertex="1">
          <mxGeometry x="-0.5263" relative="1" as="geometry">
            <mxPoint as="offset" />
          </mxGeometry>
        </mxCell>
        <mxCell id="BCwJv8wF7J041A8osd7Z-128" style="edgeStyle=orthogonalEdgeStyle;rounded=0;orthogonalLoop=1;jettySize=auto;html=1;entryX=1;entryY=0.5;entryDx=0;entryDy=0;strokeColor=#FF3333;" parent="WIyWlLk6GJQsqaUBKTNV-1" source="BCwJv8wF7J041A8osd7Z-94" target="BCwJv8wF7J041A8osd7Z-60" edge="1">
          <mxGeometry relative="1" as="geometry">
            <Array as="points">
              <mxPoint x="2580" y="3450" />
              <mxPoint x="2580" y="2990" />
            </Array>
          </mxGeometry>
        </mxCell>
        <mxCell id="BCwJv8wF7J041A8osd7Z-129" value="NO" style="edgeLabel;html=1;align=center;verticalAlign=middle;resizable=0;points=[];" parent="BCwJv8wF7J041A8osd7Z-128" connectable="0" vertex="1">
          <mxGeometry x="-0.8985" y="-2" relative="1" as="geometry">
            <mxPoint as="offset" />
          </mxGeometry>
        </mxCell>
        <mxCell id="BCwJv8wF7J041A8osd7Z-94" value="삭제" style="rhombus;whiteSpace=wrap;html=1;" parent="WIyWlLk6GJQsqaUBKTNV-1" vertex="1">
          <mxGeometry x="2360" y="3410.14" width="80" height="80" as="geometry" />
        </mxCell>
        <mxCell id="BCwJv8wF7J041A8osd7Z-98" value="삭제완료" style="ellipse;whiteSpace=wrap;html=1;fillColor=#000000;fontColor=#FFFFFF;" parent="WIyWlLk6GJQsqaUBKTNV-1" vertex="1">
          <mxGeometry x="2340" y="3800" width="120" height="80" as="geometry" />
        </mxCell>
        <mxCell id="BCwJv8wF7J041A8osd7Z-108" value="" style="edgeStyle=orthogonalEdgeStyle;rounded=0;orthogonalLoop=1;jettySize=auto;html=1;" parent="WIyWlLk6GJQsqaUBKTNV-1" source="BCwJv8wF7J041A8osd7Z-103" target="w7Ox92A5aqky2tJf7LNV-369" edge="1">
          <mxGeometry relative="1" as="geometry" />
        </mxCell>
        <mxCell id="BCwJv8wF7J041A8osd7Z-103" value="배출확인" style="whiteSpace=wrap;html=1;rounded=1;" parent="WIyWlLk6GJQsqaUBKTNV-1" vertex="1">
          <mxGeometry x="890" y="932.5" width="120" height="60" as="geometry" />
        </mxCell>
        <mxCell id="BCwJv8wF7J041A8osd7Z-110" value="YES" style="edgeStyle=orthogonalEdgeStyle;rounded=0;orthogonalLoop=1;jettySize=auto;html=1;strokeColor=#FF3333;" parent="WIyWlLk6GJQsqaUBKTNV-1" source="BCwJv8wF7J041A8osd7Z-106" target="BCwJv8wF7J041A8osd7Z-107" edge="1">
          <mxGeometry relative="1" as="geometry" />
        </mxCell>
        <mxCell id="BCwJv8wF7J041A8osd7Z-112" value="NO" style="edgeStyle=orthogonalEdgeStyle;rounded=0;orthogonalLoop=1;jettySize=auto;html=1;entryX=1;entryY=0.5;entryDx=0;entryDy=0;strokeColor=#FF3333;" parent="WIyWlLk6GJQsqaUBKTNV-1" source="BCwJv8wF7J041A8osd7Z-106" target="w7Ox92A5aqky2tJf7LNV-384" edge="1">
          <mxGeometry x="-0.9672" relative="1" as="geometry">
            <Array as="points">
              <mxPoint x="1040" y="1200" />
              <mxPoint x="1040" y="865" />
            </Array>
            <mxPoint as="offset" />
          </mxGeometry>
        </mxCell>
        <mxCell id="BCwJv8wF7J041A8osd7Z-106" value="배출 날짜가&lt;br&gt;현재 이후 인가&amp;nbsp;" style="rhombus;whiteSpace=wrap;html=1;rounded=1;" parent="WIyWlLk6GJQsqaUBKTNV-1" vertex="1">
          <mxGeometry x="900" y="1162.5" width="100" height="80" as="geometry" />
        </mxCell>
        <mxCell id="BCwJv8wF7J041A8osd7Z-111" value="YES" style="edgeStyle=orthogonalEdgeStyle;rounded=0;orthogonalLoop=1;jettySize=auto;html=1;strokeColor=#FF3333;" parent="WIyWlLk6GJQsqaUBKTNV-1" source="BCwJv8wF7J041A8osd7Z-107" target="w7Ox92A5aqky2tJf7LNV-372" edge="1">
          <mxGeometry relative="1" as="geometry" />
        </mxCell>
        <mxCell id="BCwJv8wF7J041A8osd7Z-115" value="NO" style="edgeStyle=orthogonalEdgeStyle;rounded=0;orthogonalLoop=1;jettySize=auto;html=1;entryX=1;entryY=0.25;entryDx=0;entryDy=0;strokeColor=#FF3333;" parent="WIyWlLk6GJQsqaUBKTNV-1" source="BCwJv8wF7J041A8osd7Z-107" target="w7Ox92A5aqky2tJf7LNV-384" edge="1">
          <mxGeometry x="-0.9736" relative="1" as="geometry">
            <Array as="points">
              <mxPoint x="1040" y="1345" />
              <mxPoint x="1040" y="865" />
              <mxPoint x="750" y="865" />
              <mxPoint x="750" y="862" />
            </Array>
            <mxPoint as="offset" />
          </mxGeometry>
        </mxCell>
        <mxCell id="BCwJv8wF7J041A8osd7Z-107" value="배출 확인 &lt;br&gt;전인가" style="rhombus;whiteSpace=wrap;html=1;rounded=1;" parent="WIyWlLk6GJQsqaUBKTNV-1" vertex="1">
          <mxGeometry x="900" y="1307.5" width="100" height="80" as="geometry" />
        </mxCell>
        <mxCell id="BCwJv8wF7J041A8osd7Z-125" value="" style="endArrow=none;html=1;rounded=0;entryX=0;entryY=1;entryDx=0;entryDy=0;" parent="WIyWlLk6GJQsqaUBKTNV-1" target="BCwJv8wF7J041A8osd7Z-52" edge="1">
          <mxGeometry width="50" height="50" relative="1" as="geometry">
            <mxPoint x="1260" y="4190" as="sourcePoint" />
            <mxPoint x="1270" y="2400" as="targetPoint" />
          </mxGeometry>
        </mxCell>
      </root>
    </mxGraphModel>
  </diagram>
</mxfile>
